<svg width="100" height="100" viewBox="0 0 100 100" fill="none" xmlns="http://www.w3.org/2000/svg">
<path d="M96.875 10.9375C96.875 10.5231 96.7104 10.1257 96.4173 9.83264C96.1243 9.53962 95.7269 9.375 95.3125 9.375H56.25V4.6875C56.25 4.37845 56.1584 4.07635 55.9867 3.81939C55.815 3.56243 55.5709 3.36215 55.2854 3.24388C54.9999 3.12561 54.6857 3.09467 54.3826 3.15497C54.0795 3.21526 53.8011 3.36408 53.5826 3.58261C51.0922 6.07422 46.4062 7.8125 42.1875 7.8125H26.5625C24.4912 7.81482 22.5054 8.63867 21.0408 10.1033C19.5761 11.5679 18.7523 13.5537 18.75 15.625V17.1875C18.75 17.3555 18.7771 17.5223 18.8302 17.6816L21.8818 26.8359C21.9527 30.9492 23.6166 35.8613 26.267 39.7324C26.8328 40.5631 27.4535 41.355 28.125 42.1029V45.3125H26.5625C26.3053 45.3125 26.052 45.376 25.8253 45.4974C25.5985 45.6187 25.4052 45.7942 25.2625 46.0082L22.1375 50.6957C21.9371 50.9963 21.847 51.357 21.8827 51.7165C21.9183 52.0759 22.0773 52.412 22.3328 52.6674L23.2795 53.6141L10.4433 57.8926C10.2074 57.9712 9.99365 58.1051 9.81985 58.283C9.64606 58.4609 9.51724 58.6777 9.44411 58.9154L3.19411 79.2279C3.1222 79.4616 3.10613 79.7089 3.14721 79.95C3.18828 80.191 3.28535 80.4191 3.43061 80.6157C3.57588 80.8124 3.76527 80.9723 3.98356 81.0824C4.20186 81.1926 4.44296 81.25 4.68747 81.25H47.284C50.9875 83.3015 55.1522 84.3769 59.386 84.375C63.6198 84.3731 67.7836 83.294 71.4853 81.2393L85.7478 95.5018C86.1827 95.939 86.6995 96.2861 87.2687 96.5232C87.838 96.7604 88.4484 96.8829 89.065 96.8837C89.6817 96.8846 90.2924 96.7637 90.8623 96.5281C91.4321 96.2925 91.9499 95.9468 92.386 95.5108C92.822 95.0747 93.1677 94.557 93.4033 93.9871C93.6389 93.4172 93.7597 92.8065 93.7589 92.1898C93.758 91.5732 93.6356 90.9628 93.3984 90.3936C93.1613 89.8243 92.8141 89.3075 92.3769 88.8727L78.7095 75.2055C80.3069 73.259 81.6013 71.0827 82.5492 68.75H95.3125C95.7269 68.75 96.1243 68.5854 96.4173 68.2924C96.7104 67.9993 96.875 67.6019 96.875 67.1875V10.9375ZM21.875 15.625C21.8764 14.3822 22.3707 13.1908 23.2495 12.312C24.1283 11.4333 25.3197 10.9389 26.5625 10.9375H42.1875C45.4619 10.9375 49.7213 9.97539 53.125 7.87636V16.9336L51.4291 22.0213L49.8883 18.1693C49.7722 17.8795 49.572 17.631 49.3134 17.456C49.0548 17.281 48.7497 17.1875 48.4375 17.1875H26.5625C26.2502 17.1875 25.9451 17.2811 25.6865 17.4561C25.4279 17.6312 25.2277 17.8798 25.1117 18.1697L23.5709 22.0217L21.875 16.9336V15.625ZM25.0072 26.8455L27.6205 20.3125H47.3795L49.9924 26.8443C49.9142 30.4867 48.3322 34.9303 45.8982 38.3268C43.8381 39.6514 41.9822 41.2693 40.389 43.1295C39.4781 43.5304 38.4951 43.7415 37.5 43.75C34.5162 43.75 31.3619 41.6422 28.8455 37.9672C26.5353 34.5932 25.0816 30.3621 25.0072 26.8455ZM35.5779 51.7121L31.25 49.1154V44.8455C33.2347 46.1752 35.3533 46.875 37.5 46.875C37.5781 46.875 37.6562 46.8699 37.7343 46.868C36.845 48.4012 36.1221 50.0252 35.5779 51.7121ZM27.3986 48.4375H28.125V50C28.125 50.2698 28.1948 50.535 28.3278 50.7698C28.4607 51.0046 28.6522 51.201 28.8836 51.3398L34.782 54.8783C34.7183 55.2271 34.6623 55.5787 34.614 55.933L32.6433 58.5586L25.448 51.3633L27.3986 48.4375ZM18.75 67.1875C18.3356 67.1875 17.9381 67.3521 17.6451 67.6451C17.3521 67.9382 17.1875 68.3356 17.1875 68.75V78.125H6.8031L12.1937 60.6029L25.7484 56.0846L31.5269 61.8631L32.7043 64.2176L29.7476 74.5703C29.7077 74.7101 29.6875 74.8547 29.6875 75V78.125H20.3125V68.75C20.3125 68.3356 20.1479 67.9382 19.8548 67.6451C19.5618 67.3521 19.1644 67.1875 18.75 67.1875ZM32.8125 78.125V75.2188L35.3562 66.316C36.6847 70.885 39.287 74.9811 42.8586 78.125H32.8125ZM90.625 92.1875C90.6249 92.4965 90.5333 92.7986 90.3616 93.0555C90.1899 93.3125 89.9458 93.5127 89.6603 93.631C89.3748 93.7492 89.0607 93.7801 88.7576 93.7198C88.4545 93.6595 88.1761 93.5107 87.9576 93.2922L74.1754 79.5102C75.0181 78.8894 75.8214 78.2167 76.5804 77.4961L90.1674 91.0828C90.3129 91.2275 90.4283 91.3997 90.5068 91.5893C90.5854 91.7789 90.6255 91.9823 90.625 92.1875ZM59.375 81.25C55.0485 81.25 50.8192 79.9671 47.2219 77.5634C43.6245 75.1597 40.8208 71.7433 39.1651 67.7462C37.5094 63.7491 37.0762 59.3507 37.9203 55.1074C38.7643 50.8641 40.8477 46.9663 43.907 43.907C46.9663 40.8478 50.864 38.7644 55.1074 37.9203C59.3507 37.0763 63.749 37.5095 67.7462 39.1651C71.7433 40.8208 75.1597 43.6246 77.5634 47.2219C79.967 50.8192 81.25 55.0485 81.25 59.375C81.2434 65.1746 78.9366 70.7348 74.8357 74.8357C70.7347 78.9366 65.1746 81.2434 59.375 81.25ZM93.75 65.625H83.584C83.9796 64.0897 84.2277 62.52 84.3248 60.9375H89.0625C89.4769 60.9375 89.8743 60.7729 90.1673 60.4799C90.4604 60.1868 90.625 59.7894 90.625 59.375C90.625 58.9606 90.4604 58.5632 90.1673 58.2701C89.8743 57.9771 89.4769 57.8125 89.0625 57.8125H84.3248C84.2277 56.23 83.9796 54.6603 83.584 53.125H89.0625C89.4769 53.125 89.8743 52.9604 90.1673 52.6674C90.4604 52.3743 90.625 51.9769 90.625 51.5625C90.625 51.1481 90.4604 50.7507 90.1673 50.4576C89.8743 50.1646 89.4769 50 89.0625 50H82.5492C81.8801 48.3524 81.0369 46.781 80.034 45.3125H89.0625C89.4769 45.3125 89.8743 45.1479 90.1673 44.8549C90.4604 44.5618 90.625 44.1644 90.625 43.75C90.625 43.3356 90.4604 42.9382 90.1673 42.6451C89.8743 42.3521 89.4769 42.1875 89.0625 42.1875H77.5125C75.7477 40.3259 73.7087 38.7451 71.466 37.5H89.0625C89.4769 37.5 89.8743 37.3354 90.1673 37.0424C90.4604 36.7493 90.625 36.3519 90.625 35.9375C90.625 35.5231 90.4604 35.1257 90.1673 34.8326C89.8743 34.5396 89.4769 34.375 89.0625 34.375H59.375C56.4912 34.3725 53.6289 34.8714 50.916 35.8492C51.5943 34.37 52.1316 32.8301 52.5207 31.25H70.3125C70.7269 31.25 71.1243 31.0854 71.4173 30.7924C71.7104 30.4993 71.875 30.1019 71.875 29.6875C71.875 29.2731 71.7104 28.8757 71.4173 28.5826C71.1243 28.2896 70.7269 28.125 70.3125 28.125H53.0498C53.0888 27.6894 53.1109 27.2603 53.1179 26.8371L53.7304 25H70.3125C70.7269 25 71.1243 24.8354 71.4173 24.5424C71.7104 24.2493 71.875 23.8519 71.875 23.4375C71.875 23.0231 71.7104 22.6257 71.4173 22.3326C71.1243 22.0396 70.7269 21.875 70.3125 21.875H54.772L55.8136 18.75H70.3125C70.7269 18.75 71.1243 18.5854 71.4173 18.2924C71.7104 17.9993 71.875 17.6019 71.875 17.1875C71.875 16.7731 71.7104 16.3757 71.4173 16.0826C71.1243 15.7896 70.7269 15.625 70.3125 15.625H56.25V12.5H93.75V65.625Z" fill="#6174AE"/>
<path d="M32.8125 28.125C33.6754 28.125 34.375 27.4254 34.375 26.5625C34.375 25.6996 33.6754 25 32.8125 25C31.9496 25 31.25 25.6996 31.25 26.5625C31.25 27.4254 31.9496 28.125 32.8125 28.125Z" fill="#6174AE"/>
<path d="M42.1875 28.125C43.0504 28.125 43.75 27.4254 43.75 26.5625C43.75 25.6996 43.0504 25 42.1875 25C41.3246 25 40.625 25.6996 40.625 26.5625C40.625 27.4254 41.3246 28.125 42.1875 28.125Z" fill="#6174AE"/>
<path d="M31.9458 35.675C33.5893 36.7749 35.5225 37.3621 37.5001 37.3621C39.4777 37.3621 41.4109 36.7749 43.0544 35.675C43.3968 35.4441 43.6338 35.087 43.7137 34.6818C43.7935 34.2767 43.7098 33.8564 43.4807 33.5128C43.2516 33.1692 42.8958 32.9303 42.4911 32.8482C42.0863 32.7662 41.6656 32.8477 41.3208 33.075C40.1902 33.8316 38.8605 34.2354 37.5001 34.2354C36.1397 34.2354 34.81 33.8316 33.6794 33.075C33.5087 32.9599 33.3169 32.8796 33.1151 32.8388C32.9133 32.798 32.7054 32.7975 32.5034 32.8374C32.3014 32.8772 32.1093 32.9566 31.938 33.0709C31.7668 33.1852 31.6199 33.3322 31.5056 33.5036C31.3914 33.6749 31.3122 33.867 31.2725 34.0691C31.2328 34.2711 31.2334 34.479 31.2743 34.6808C31.3152 34.8826 31.3956 35.0743 31.5108 35.2449C31.6261 35.4155 31.7739 35.5617 31.9458 35.675Z" fill="#6174AE"/>
<path d="M59.375 40.625C55.6666 40.625 52.0415 41.7247 48.9581 43.7849C45.8746 45.8452 43.4714 48.7736 42.0523 52.1997C40.6331 55.6258 40.2618 59.3958 40.9853 63.0329C41.7088 66.6701 43.4945 70.011 46.1168 72.6333C48.739 75.2555 52.0799 77.0413 55.7171 77.7647C59.3542 78.4882 63.1242 78.1169 66.5503 76.6977C69.9764 75.2786 72.9048 72.8754 74.9651 69.7919C77.0253 66.7085 78.125 63.0834 78.125 59.375C78.1194 54.4039 76.1422 49.638 72.6271 46.1229C69.112 42.6078 64.3461 40.6306 59.375 40.625ZM59.375 75C56.2847 75 53.2637 74.0836 50.6942 72.3667C48.1247 70.6498 46.122 68.2095 44.9394 65.3544C43.7568 62.4993 43.4473 59.3577 44.0502 56.3267C44.6531 53.2958 46.1413 50.5117 48.3265 48.3265C50.5117 46.1413 53.2958 44.6531 56.3267 44.0502C59.3577 43.4473 62.4993 43.7568 65.3544 44.9394C68.2095 46.122 70.6498 48.1247 72.3667 50.6942C74.0836 53.2637 75 56.2847 75 59.375C74.9953 63.5176 73.3476 67.4891 70.4184 70.4183C67.4891 73.3476 63.5176 74.9953 59.375 75Z" fill="#6174AE"/>
<path d="M59.375 68.75C56.8895 68.7472 54.5065 67.7586 52.749 66.001C50.9914 64.2435 50.0028 61.8605 50 59.375C50 58.9606 49.8354 58.5632 49.5424 58.2701C49.2493 57.9771 48.8519 57.8125 48.4375 57.8125C48.0231 57.8125 47.6257 57.9771 47.3326 58.2701C47.0396 58.5632 46.875 58.9606 46.875 59.375C46.8787 62.6891 48.1969 65.8663 50.5403 68.2097C52.8837 70.5531 56.0609 71.8713 59.375 71.875C59.7894 71.875 60.1868 71.7104 60.4799 71.4174C60.7729 71.1243 60.9375 70.7269 60.9375 70.3125C60.9375 69.8981 60.7729 69.5007 60.4799 69.2076C60.1868 68.9146 59.7894 68.75 59.375 68.75Z" fill="#6174AE"/>
<path d="M66.0827 52.0201L57.8125 60.2904L55.7924 58.2701C55.4994 57.9771 55.102 57.8125 54.6875 57.8125C54.2731 57.8125 53.8757 57.9771 53.5827 58.2701C53.2896 58.5632 53.125 58.9606 53.125 59.375C53.125 59.7894 53.2896 60.1869 53.5827 60.4799L56.7077 63.6049C56.8527 63.75 57.025 63.8651 57.2146 63.9436C57.4042 64.0222 57.6073 64.0626 57.8125 64.0626C58.0177 64.0626 58.2209 64.0222 58.4105 63.9436C58.6001 63.8651 58.7723 63.75 58.9174 63.6049L68.2924 54.2299C68.5855 53.9369 68.7501 53.5394 68.7501 53.125C68.7501 52.7106 68.5855 52.3132 68.2924 52.0201C67.9994 51.7271 67.602 51.5625 67.1875 51.5625C66.7731 51.5625 66.3757 51.7271 66.0827 52.0201Z" fill="#6174AE"/>
<path d="M76.5625 31.25H89.0625C89.4769 31.25 89.8743 31.0854 90.1674 30.7924C90.4604 30.4993 90.625 30.1019 90.625 29.6875V17.1875C90.625 16.7731 90.4604 16.3757 90.1674 16.0826C89.8743 15.7896 89.4769 15.625 89.0625 15.625H76.5625C76.1481 15.625 75.7507 15.7896 75.4576 16.0826C75.1646 16.3757 75 16.7731 75 17.1875V29.6875C75 30.1019 75.1646 30.4993 75.4576 30.7924C75.7507 31.0854 76.1481 31.25 76.5625 31.25ZM78.125 18.75H87.5V28.125H78.125V18.75Z" fill="#6174AE"/>
</svg>
