<svg width="100" height="100" viewBox="0 0 100 100" fill="none" xmlns="http://www.w3.org/2000/svg">
<path d="M18.7654 32.6185H29.2193C28.939 33.8981 28.3303 35.7261 27.0106 37.5221C26.2575 36.6097 25.616 35.6191 25.101 34.575C24.7712 33.9126 23.9245 33.5678 23.2141 33.9462C22.5007 34.3029 22.2382 35.142 22.584 35.8158C23.2488 37.1609 24.0903 38.4384 25.0869 39.6157C23.6154 40.8651 21.796 41.8203 19.6784 42.4557C18.9165 42.6791 18.4938 43.451 18.7179 44.2149C18.9045 44.8115 19.4469 45.2128 20.0677 45.2128C20.7674 45.2128 24.4679 43.8864 27.0675 41.5675C28.7256 43.0109 30.6346 44.2055 32.7563 45.1232C33.647 45.3913 34.3092 44.977 34.577 44.3754C34.8931 43.5817 34.5452 42.7979 33.8526 42.528C32.07 41.7641 30.4299 40.7501 28.9765 39.5127C31.0386 36.892 31.7998 34.1182 32.0754 32.6185H34.2659C35.0412 32.6185 35.6726 31.9797 35.6726 31.1958C35.6726 30.4199 35.0412 29.7885 34.2659 29.7885H27.9056V28.0548C27.9056 27.2662 27.2875 26.6481 26.4989 26.6481C25.7237 26.6481 25.0923 27.2789 25.0923 28.0548V29.7885H18.7654C17.9767 29.7885 17.3594 30.4065 17.3594 31.1958C17.3594 31.9797 17.9901 32.6185 18.7654 32.6185Z" fill="#6174AE"/>
<path d="M42.7204 29.4942H63.544C64.3005 29.4942 64.9138 28.8802 64.9138 28.1243C64.9138 27.3672 64.3005 26.7545 63.544 26.7545H42.7204C41.9639 26.7545 41.3506 27.3672 41.3506 28.1243C41.3506 28.8802 41.9639 29.4942 42.7204 29.4942Z" fill="#6174AE"/>
<path d="M42.7204 38.3789H63.544C64.3005 38.3789 64.9138 37.7655 64.9138 37.009C64.9138 36.2525 64.3005 35.6392 63.544 35.6392H42.7204C41.9639 35.6392 41.3506 36.2525 41.3506 37.009C41.3506 37.7655 41.9639 38.3789 42.7204 38.3789Z" fill="#6174AE"/>
<path d="M42.7204 47.2636H63.544C64.3005 47.2636 64.9138 46.6509 64.9138 45.8938C64.9138 45.1379 64.3005 44.5239 63.544 44.5239H42.7204C41.9639 44.5239 41.3506 45.1379 41.3506 45.8938C41.3506 46.6509 41.9639 47.2636 42.7204 47.2636Z" fill="#6174AE"/>
<path d="M50.2917 53.4093H18.1106C17.3541 53.4093 16.7407 54.0226 16.7407 54.7791C16.7407 55.5356 17.3541 56.149 18.1106 56.149H50.2917C51.0482 56.149 51.6615 55.5356 51.6615 54.7791C51.6615 54.0226 51.0482 53.4093 50.2917 53.4093Z" fill="#6174AE"/>
<path d="M50.2917 62.2946H18.1106C17.3541 62.2946 16.7407 62.9073 16.7407 63.6645C16.7407 64.4203 17.3541 65.0344 18.1106 65.0344H50.2917C51.0482 65.0344 51.6615 64.4203 51.6615 63.6645C51.6615 62.9073 51.0482 62.2946 50.2917 62.2946Z" fill="#6174AE"/>
<path d="M41.9086 71.18H18.1106C17.3541 71.18 16.7407 71.7927 16.7407 72.5499C16.7407 73.3057 17.3541 73.9197 18.1106 73.9197H41.9086C42.6651 73.9197 43.2785 73.3057 43.2785 72.5499C43.2785 71.7927 42.6651 71.18 41.9086 71.18Z" fill="#6174AE"/>
<path d="M35.0312 80.0648H18.1106C17.3541 80.0648 16.7407 80.6781 16.7407 81.4346C16.7407 82.1911 17.3541 82.8045 18.1106 82.8045H35.0312C35.7877 82.8045 36.4011 82.1911 36.4011 81.4346C36.4011 80.6781 35.7877 80.0648 35.0312 80.0648Z" fill="#6174AE"/>
<mask id="path-9-inside-1_40_449" fill="white">
<path d="M88.9168 77.1023V74.3084L91.3278 72.9245C91.3278 72.9245 91.3415 72.9245 91.3415 72.9111C92.8759 71.9934 93.4237 70.0617 92.5746 68.4865C92.5394 68.4333 91.1682 66.0754 91.1362 66.0203L92.5746 63.5548C93.4237 61.9656 92.8759 60.0205 91.3141 59.1161L88.9168 57.7329V54.9517C88.9168 53.1029 87.465 51.6642 85.6156 51.6642H82.8347L81.4511 49.2535C80.5609 47.6917 78.6017 47.1573 76.9579 48.0342L74.5607 49.4315L72.3551 48.1572V26.2394C72.3551 20.5687 67.7388 15.938 62.0677 15.938H56.1635V15.8972C56.1635 14.2123 54.7937 12.8284 53.095 12.8284H47.7524C47.4099 8.67803 43.917 5.40387 39.6977 5.40387C35.4785 5.40387 31.9715 8.67803 31.6431 12.8284H26.2867C24.6018 12.8284 23.2182 14.2123 23.2182 15.8972V15.938H17.3141C11.643 15.938 7.02637 20.5687 7.02637 26.2394V81.4179C7.02637 87.0886 11.643 91.7052 17.3141 91.7052H62.0677C62.5393 91.7052 62.9964 91.6497 63.4516 91.5882L64.0539 93.1714C64.3553 93.952 65.0813 94.4998 65.9031 94.5821C65.9853 94.5961 66.0539 94.5961 66.1225 94.5961C66.9305 94.5961 67.6565 94.1714 68.0538 93.4865L74.1908 82.8152L74.5607 82.6098L74.862 82.7878L81.0264 93.4865C81.4237 94.1714 82.1635 94.5961 82.9581 94.5961C83.0263 94.5961 83.0949 94.5961 83.1635 94.5821C84.0129 94.4998 84.7387 93.966 85.0403 93.1574L86.2045 90.0752L89.4375 90.5956C90.2867 90.7601 91.1499 90.3902 91.6428 89.6779C92.1361 88.9796 92.1773 88.0478 91.7388 87.2947L87.451 79.8561C88.3416 79.2668 88.9168 78.2668 88.9168 77.1023ZM39.5198 9.70543C40.7114 9.70543 41.6703 10.678 41.6703 11.8559C41.6703 13.0478 40.7114 14.007 39.5198 14.007C38.3279 14.007 37.3553 13.0478 37.3553 11.8559C37.3553 10.678 38.3279 9.70543 39.5198 9.70543ZM9.76609 81.4179V26.2394C9.76609 22.075 13.15 18.6778 17.3141 18.6778H23.2182V19.0343C23.2182 20.7326 24.6018 22.1024 26.2867 22.1024H53.095C54.7937 22.1024 56.1635 20.7326 56.1635 19.0343V18.6778H62.0677C66.2321 18.6778 69.6153 22.075 69.6153 26.2394V47.7466C67.6261 48.296 67.3151 50.1402 66.2596 51.6642H63.465C61.6567 51.6642 60.1908 53.1297 60.1908 54.9517V57.7329L57.7799 59.1161C56.2047 60.0205 55.6702 61.9796 56.5608 63.6097L57.9581 66.0203L56.5334 68.4998C55.6839 70.0617 56.2184 72.0068 57.7799 72.9385L60.1908 74.3218V77.1023C60.1908 78.2394 60.7801 79.2534 61.6567 79.842L57.3414 87.2947C57.0498 87.803 56.9876 88.4057 57.127 88.9655H17.3141C13.15 88.9655 9.76609 85.5823 9.76609 81.4179ZM86.862 72.3359C86.4376 72.582 86.1771 73.0342 86.1771 73.5271C86.1387 77.0936 86.2778 77.1842 86.0537 77.4448C85.7676 77.8148 85.5151 77.5778 82.0538 77.6508C81.5608 77.6508 81.1087 77.911 80.8622 78.3357L79.0813 81.4179C78.9442 81.6781 78.6977 81.7055 78.6017 81.7055C78.329 81.7055 78.3701 81.6278 75.2456 79.842C74.7766 79.5827 74.2172 79.6296 73.8757 79.842C73.7348 79.9242 70.6253 81.7373 70.821 81.6232C70.5197 81.7737 70.1635 81.6915 70.0126 81.4453C69.9316 81.3037 68.1196 78.1392 68.2321 78.3357C67.9853 77.911 67.5334 77.6508 67.0401 77.6508C63.5015 77.5759 63.3271 77.8215 63.054 77.4314C62.8356 77.213 62.9697 77.1594 62.9306 73.5271C62.9306 73.0342 62.6567 72.582 62.2319 72.3359L59.1634 70.5687C58.8895 70.4041 58.7935 70.0751 58.917 69.8289L60.7253 66.7052C60.9717 66.2805 60.9717 65.7467 60.7253 65.322L58.9581 62.2672C58.7935 61.9796 58.8758 61.6505 59.1497 61.486L62.2456 59.7054C62.6567 59.4586 62.9306 59.0065 62.9306 58.5275V54.9517C62.9306 54.6507 63.1774 54.4039 63.465 54.4039H67.0401C67.5334 54.4039 67.9853 54.1303 68.2321 53.7056C68.3135 53.5642 70.1123 50.4405 69.9993 50.6368C70.1635 50.3632 70.5059 50.2669 70.7524 50.39C70.8937 50.4717 74.0789 52.3162 73.8757 52.1986C74.3005 52.4448 74.8212 52.4448 75.2456 52.1986L78.3004 50.4314C78.5883 50.2669 78.9168 50.3492 79.0813 50.6234L80.8622 53.719C81.1087 54.1303 81.5608 54.4039 82.0538 54.4039H85.6156C85.9443 54.4039 86.1771 54.6233 86.1771 54.9517V58.5275C86.1771 59.0065 86.4376 59.4586 86.862 59.7054L89.9442 61.486C90.2181 61.6505 90.3141 61.9796 90.1907 62.2124L88.369 65.322C88.1225 65.7467 88.1225 66.2671 88.369 66.7052L90.1633 69.8149C90.1773 69.8289 90.1907 69.8423 90.1907 69.8563C90.3004 70.1165 90.1907 70.4041 89.9442 70.5546L86.862 72.3359Z"/>
</mask>
<path d="M88.9168 77.1023V74.3084L91.3278 72.9245C91.3278 72.9245 91.3415 72.9245 91.3415 72.9111C92.8759 71.9934 93.4237 70.0617 92.5746 68.4865C92.5394 68.4333 91.1682 66.0754 91.1362 66.0203L92.5746 63.5548C93.4237 61.9656 92.8759 60.0205 91.3141 59.1161L88.9168 57.7329V54.9517C88.9168 53.1029 87.465 51.6642 85.6156 51.6642H82.8347L81.4511 49.2535C80.5609 47.6917 78.6017 47.1573 76.9579 48.0342L74.5607 49.4315L72.3551 48.1572V26.2394C72.3551 20.5687 67.7388 15.938 62.0677 15.938H56.1635V15.8972C56.1635 14.2123 54.7937 12.8284 53.095 12.8284H47.7524C47.4099 8.67803 43.917 5.40387 39.6977 5.40387C35.4785 5.40387 31.9715 8.67803 31.6431 12.8284H26.2867C24.6018 12.8284 23.2182 14.2123 23.2182 15.8972V15.938H17.3141C11.643 15.938 7.02637 20.5687 7.02637 26.2394V81.4179C7.02637 87.0886 11.643 91.7052 17.3141 91.7052H62.0677C62.5393 91.7052 62.9964 91.6497 63.4516 91.5882L64.0539 93.1714C64.3553 93.952 65.0813 94.4998 65.9031 94.5821C65.9853 94.5961 66.0539 94.5961 66.1225 94.5961C66.9305 94.5961 67.6565 94.1714 68.0538 93.4865L74.1908 82.8152L74.5607 82.6098L74.862 82.7878L81.0264 93.4865C81.4237 94.1714 82.1635 94.5961 82.9581 94.5961C83.0263 94.5961 83.0949 94.5961 83.1635 94.5821C84.0129 94.4998 84.7387 93.966 85.0403 93.1574L86.2045 90.0752L89.4375 90.5956C90.2867 90.7601 91.1499 90.3902 91.6428 89.6779C92.1361 88.9796 92.1773 88.0478 91.7388 87.2947L87.451 79.8561C88.3416 79.2668 88.9168 78.2668 88.9168 77.1023ZM39.5198 9.70543C40.7114 9.70543 41.6703 10.678 41.6703 11.8559C41.6703 13.0478 40.7114 14.007 39.5198 14.007C38.3279 14.007 37.3553 13.0478 37.3553 11.8559C37.3553 10.678 38.3279 9.70543 39.5198 9.70543ZM9.76609 81.4179V26.2394C9.76609 22.075 13.15 18.6778 17.3141 18.6778H23.2182V19.0343C23.2182 20.7326 24.6018 22.1024 26.2867 22.1024H53.095C54.7937 22.1024 56.1635 20.7326 56.1635 19.0343V18.6778H62.0677C66.2321 18.6778 69.6153 22.075 69.6153 26.2394V47.7466C67.6261 48.296 67.3151 50.1402 66.2596 51.6642H63.465C61.6567 51.6642 60.1908 53.1297 60.1908 54.9517V57.7329L57.7799 59.1161C56.2047 60.0205 55.6702 61.9796 56.5608 63.6097L57.9581 66.0203L56.5334 68.4998C55.6839 70.0617 56.2184 72.0068 57.7799 72.9385L60.1908 74.3218V77.1023C60.1908 78.2394 60.7801 79.2534 61.6567 79.842L57.3414 87.2947C57.0498 87.803 56.9876 88.4057 57.127 88.9655H17.3141C13.15 88.9655 9.76609 85.5823 9.76609 81.4179ZM86.862 72.3359C86.4376 72.582 86.1771 73.0342 86.1771 73.5271C86.1387 77.0936 86.2778 77.1842 86.0537 77.4448C85.7676 77.8148 85.5151 77.5778 82.0538 77.6508C81.5608 77.6508 81.1087 77.911 80.8622 78.3357L79.0813 81.4179C78.9442 81.6781 78.6977 81.7055 78.6017 81.7055C78.329 81.7055 78.3701 81.6278 75.2456 79.842C74.7766 79.5827 74.2172 79.6296 73.8757 79.842C73.7348 79.9242 70.6253 81.7373 70.821 81.6232C70.5197 81.7737 70.1635 81.6915 70.0126 81.4453C69.9316 81.3037 68.1196 78.1392 68.2321 78.3357C67.9853 77.911 67.5334 77.6508 67.0401 77.6508C63.5015 77.5759 63.3271 77.8215 63.054 77.4314C62.8356 77.213 62.9697 77.1594 62.9306 73.5271C62.9306 73.0342 62.6567 72.582 62.2319 72.3359L59.1634 70.5687C58.8895 70.4041 58.7935 70.0751 58.917 69.8289L60.7253 66.7052C60.9717 66.2805 60.9717 65.7467 60.7253 65.322L58.9581 62.2672C58.7935 61.9796 58.8758 61.6505 59.1497 61.486L62.2456 59.7054C62.6567 59.4586 62.9306 59.0065 62.9306 58.5275V54.9517C62.9306 54.6507 63.1774 54.4039 63.465 54.4039H67.0401C67.5334 54.4039 67.9853 54.1303 68.2321 53.7056C68.3135 53.5642 70.1123 50.4405 69.9993 50.6368C70.1635 50.3632 70.5059 50.2669 70.7524 50.39C70.8937 50.4717 74.0789 52.3162 73.8757 52.1986C74.3005 52.4448 74.8212 52.4448 75.2456 52.1986L78.3004 50.4314C78.5883 50.2669 78.9168 50.3492 79.0813 50.6234L80.8622 53.719C81.1087 54.1303 81.5608 54.4039 82.0538 54.4039H85.6156C85.9443 54.4039 86.1771 54.6233 86.1771 54.9517V58.5275C86.1771 59.0065 86.4376 59.4586 86.862 59.7054L89.9442 61.486C90.2181 61.6505 90.3141 61.9796 90.1907 62.2124L88.369 65.322C88.1225 65.7467 88.1225 66.2671 88.369 66.7052L90.1633 69.8149C90.1773 69.8289 90.1907 69.8423 90.1907 69.8563C90.3004 70.1165 90.1907 70.4041 89.9442 70.5546L86.862 72.3359Z" fill="#6174AE" stroke="#6174AE" stroke-width="2" mask="url(#path-9-inside-1_40_449)"/>
<path d="M79.5795 65.6496L79.5795 65.6496L79.5844 65.6447C79.8121 65.4178 79.9008 65.0896 79.8007 64.7714L79.8008 64.7714L79.7982 64.7636C79.6934 64.4482 79.4192 64.2349 79.1107 64.186L79.1107 64.186L79.1047 64.1851L76.4942 63.8038L75.3275 61.4315C75.2658 61.2972 75.1682 61.1691 75.0212 61.0769C74.875 60.9851 74.7175 60.9527 74.5761 60.9469L74.5659 60.9465H74.5557C74.2387 60.9465 73.9458 61.1169 73.7937 61.4052L73.7936 61.4051L73.788 61.4163L72.6041 63.8036L69.9925 64.1851L69.9925 64.1851L69.9866 64.186C69.678 64.2349 69.4039 64.4482 69.299 64.7636L69.2941 64.7783L69.2902 64.7933C69.2145 65.0792 69.272 65.4047 69.5129 65.6447L69.5128 65.6447L69.5178 65.6496L71.4167 67.4904L70.9591 70.0936C70.8935 70.4239 71.0334 70.7492 71.2948 70.9371C71.5687 71.1462 71.9197 71.1514 72.1952 71.0057C72.1958 71.0054 72.1963 71.0051 72.1969 71.0048L74.555 69.7708L76.8974 71.0032C77.0211 71.0712 77.1597 71.1061 77.2987 71.1061C77.4622 71.1061 77.6502 71.0584 77.8127 70.9345C78.0638 70.7474 78.2038 70.4241 78.1382 70.0936L77.6805 67.4904L79.5795 65.6496ZM63.4473 66.0203C63.4473 59.8878 68.4183 54.926 74.552 54.926C80.6856 54.926 85.6563 59.8878 85.6563 66.0203C85.6563 72.1533 80.6851 77.124 74.552 77.124C68.4189 77.124 63.4473 72.1533 63.4473 66.0203Z" stroke="#6174AE"/>
</svg>
