<svg width="69" height="75" viewBox="0 0 69 75" fill="none" xmlns="http://www.w3.org/2000/svg">
<path d="M67.6269 32.1642H53.1926C52.9412 31.0895 52.3488 30.1247 51.504 29.4144C54.5083 26.123 52.7525 19.3765 47.8007 19.3343H33.6645C35.8181 10.1093 32.9622 -3.56327 21.6695 0.856364C21.2624 1.10539 21.0547 1.58264 21.1498 2.05023C21.7194 4.85939 22.4264 9.92986 21.8926 11.5857C20.3179 17.2993 13.1327 22.067 11.2038 27.0361H1.36403C0.739851 27.0361 0.232863 27.5403 0.229493 28.1644V53.6666C0.228614 54.2933 0.735896 54.8019 1.36256 54.8028H1.36417H7.26185V62.606C7.2787 63.0215 7.50648 63.3999 7.86581 63.6094C8.24829 63.7502 8.67193 63.7264 9.03624 63.5439L21.8709 54.8044H25.3917V65.7195C25.3917 66.3462 25.8997 66.8541 26.5262 66.8541H47.1452L60.0017 74.832C60.3532 75.0451 60.7914 75.0564 61.1534 74.8616C61.5174 74.6653 61.7419 74.2825 61.7355 73.869V66.8461H67.6346C68.2611 66.8453 68.769 66.3381 68.7708 65.7116V33.2988C68.7699 32.6712 68.2606 32.1634 67.6332 32.1642C67.6311 32.1642 67.6289 32.1642 67.6269 32.1642ZM9.53077 53.6666C9.53077 53.04 9.02276 52.5321 8.39624 52.5321H2.50017V29.2974H11.015V47.9984C11.015 48.625 11.523 49.1329 12.1495 49.1329C12.7762 49.1329 13.284 48.6249 13.284 47.9984V28.1643C13.284 26.8658 15.1569 24.7809 17.1341 22.5725C19.6311 19.7805 22.7525 16.3035 24.0524 12.2833C24.7828 10.0157 23.9682 4.81574 23.5624 2.57772C32.945 -0.0114196 32.8465 14.9379 31.1299 20.1583C30.9626 20.7666 31.3203 21.3953 31.9286 21.5626C32.0243 21.589 32.123 21.6026 32.2223 21.6035H47.8099C51.4494 21.8174 51.4306 27.6478 49.0038 28.4703C48.3771 28.4703 47.8693 28.9783 47.8693 29.6048C47.8693 30.2315 48.3773 30.7394 49.0038 30.7394C49.8871 30.7394 51.1107 31.7569 51.1107 33.6609C51.1145 34.9082 50.5217 36.0822 49.5158 36.8196C49.011 37.1924 48.904 37.9037 49.2768 38.4085C49.3025 38.4432 49.3302 38.4766 49.3598 38.5083C50.8472 40.0757 50.7823 42.552 49.2149 44.0394C48.6858 44.5416 48.0267 44.8858 47.3122 45.0332C46.6949 45.1719 46.307 45.7847 46.4456 46.402C46.4683 46.5032 46.5046 46.6007 46.5537 46.6922C47.6013 48.6095 46.8962 51.0132 44.9788 52.0609C44.4585 52.3452 43.8809 52.5088 43.2888 52.5399C43.1966 52.5242 21.4899 52.5242 21.4149 52.5633C21.263 52.5778 21.1155 52.6223 20.981 52.6944C20.9482 52.7132 20.9139 52.7162 20.8827 52.7366L9.53063 60.457V53.6666H9.53077ZM66.4938 64.5832H60.5947C59.968 64.5832 59.4601 65.0912 59.4601 65.7178V71.8261L48.0675 64.7533C47.8873 64.6421 47.6799 64.5832 47.4682 64.5832H27.6606V54.8028H43.2872C43.4277 54.8022 43.5678 54.7922 43.707 54.7732C47.1212 54.4388 49.6177 51.4001 49.2833 47.9861C49.2448 47.5932 49.169 47.205 49.0568 46.8265C52.1827 45.3845 53.5478 41.6814 52.1059 38.5556C51.9955 38.3162 51.8701 38.0842 51.7302 37.8607C52.5975 36.9066 53.1477 35.707 53.3049 34.4273H66.4969L66.4938 64.5832Z" fill="#6174AE"/>
</svg>
