<svg width="100" height="100" viewBox="0 0 100 100" fill="none" xmlns="http://www.w3.org/2000/svg">
<path d="M56.8965 46.6675H63.7931C64.2503 46.6675 64.6889 46.4919 65.0122 46.1794C65.3355 45.8668 65.5172 45.4429 65.5172 45.0009V38.3343C65.5172 37.8923 65.3355 37.4684 65.0122 37.1558C64.6889 36.8433 64.2503 36.6677 63.7931 36.6677H56.8965C56.4392 36.6677 56.0007 36.8433 55.6774 37.1558C55.354 37.4684 55.1724 37.8923 55.1724 38.3343V45.0009C55.1724 45.4429 55.354 45.8668 55.6774 46.1794C56.0007 46.4919 56.4392 46.6675 56.8965 46.6675ZM58.6206 40.0009H62.0689V43.3342H58.6206V40.0009Z" fill="#6174AE"/>
<path d="M70.6895 46.6675H77.586C78.0433 46.6675 78.4818 46.4919 78.8052 46.1794C79.1285 45.8668 79.3102 45.4429 79.3102 45.0009V38.3343C79.3102 37.8923 79.1285 37.4684 78.8052 37.1558C78.4818 36.8433 78.0433 36.6677 77.586 36.6677H70.6895C70.2322 36.6677 69.7937 36.8433 69.4703 37.1558C69.147 37.4684 68.9653 37.8923 68.9653 38.3343V45.0009C68.9653 45.4429 69.147 45.8668 69.4703 46.1794C69.7937 46.4919 70.2322 46.6675 70.6895 46.6675ZM72.4136 40.0009H75.8619V43.3342H72.4136V40.0009Z" fill="#6174AE"/>
<path d="M56.8965 60.0006H63.7931C64.2503 60.0006 64.6889 59.825 65.0122 59.5125C65.3355 59.1999 65.5172 58.776 65.5172 58.334V51.6674C65.5172 51.2254 65.3355 50.8015 65.0122 50.4889C64.6889 50.1764 64.2503 50.0008 63.7931 50.0008H56.8965C56.4392 50.0008 56.0007 50.1764 55.6774 50.4889C55.354 50.8015 55.1724 51.2254 55.1724 51.6674V58.334C55.1724 58.776 55.354 59.1999 55.6774 59.5125C56.0007 59.825 56.4392 60.0006 56.8965 60.0006ZM58.6206 53.3341H62.0689V56.6674H58.6206V53.3341Z" fill="#6174AE"/>
<path d="M70.6895 60.0006H77.586C78.0433 60.0006 78.4818 59.825 78.8052 59.5125C79.1285 59.1999 79.3102 58.776 79.3102 58.334V51.6674C79.3102 51.2254 79.1285 50.8015 78.8052 50.4889C78.4818 50.1764 78.0433 50.0008 77.586 50.0008H70.6895C70.2322 50.0008 69.7937 50.1764 69.4703 50.4889C69.147 50.8015 68.9653 51.2254 68.9653 51.6674V58.334C68.9653 58.776 69.147 59.1999 69.4703 59.5125C69.7937 59.825 70.2322 60.0006 70.6895 60.0006ZM72.4136 53.3341H75.8619V56.6674H72.4136V53.3341Z" fill="#6174AE"/>
<path d="M56.8965 73.3337H63.7931C64.2503 73.3337 64.6889 73.1582 65.0122 72.8456C65.3355 72.533 65.5172 72.1091 65.5172 71.6671V65.0005C65.5172 64.5585 65.3355 64.1346 65.0122 63.8221C64.6889 63.5095 64.2503 63.3339 63.7931 63.3339H56.8965C56.4392 63.3339 56.0007 63.5095 55.6774 63.8221C55.354 64.1346 55.1724 64.5585 55.1724 65.0005V71.6671C55.1724 72.1091 55.354 72.533 55.6774 72.8456C56.0007 73.1582 56.4392 73.3337 56.8965 73.3337ZM58.6206 66.6672H62.0689V70.0005H58.6206V66.6672Z" fill="#6174AE"/>
<path d="M70.6895 73.3337H77.586C78.0433 73.3337 78.4818 73.1582 78.8052 72.8456C79.1285 72.533 79.3102 72.1091 79.3102 71.6671V65.0005C79.3102 64.5585 79.1285 64.1346 78.8052 63.8221C78.4818 63.5095 78.0433 63.3339 77.586 63.3339H70.6895C70.2322 63.3339 69.7937 63.5095 69.4703 63.8221C69.147 64.1346 68.9653 64.5585 68.9653 65.0005V71.6671C68.9653 72.1091 69.147 72.533 69.4703 72.8456C69.7937 73.1582 70.2322 73.3337 70.6895 73.3337ZM72.4136 66.6672H75.8619V70.0005H72.4136V66.6672Z" fill="#6174AE"/>
<path d="M84.4829 46.6675H91.3795C91.8367 46.6675 92.2753 46.4919 92.5986 46.1794C92.922 45.8668 93.1036 45.4429 93.1036 45.0009V38.3343C93.1036 37.8923 92.922 37.4684 92.5986 37.1558C92.2753 36.8433 91.8367 36.6677 91.3795 36.6677H84.4829C84.0257 36.6677 83.5871 36.8433 83.2638 37.1558C82.9404 37.4684 82.7588 37.8923 82.7588 38.3343V45.0009C82.7588 45.4429 82.9404 45.8668 83.2638 46.1794C83.5871 46.4919 84.0257 46.6675 84.4829 46.6675ZM86.2071 40.0009H89.6553V43.3342H86.2071V40.0009Z" fill="#6174AE"/>
<path d="M84.4829 60.0006H91.3795C91.8367 60.0006 92.2753 59.825 92.5986 59.5125C92.922 59.1999 93.1036 58.776 93.1036 58.334V51.6674C93.1036 51.2254 92.922 50.8015 92.5986 50.4889C92.2753 50.1764 91.8367 50.0008 91.3795 50.0008H84.4829C84.0257 50.0008 83.5871 50.1764 83.2638 50.4889C82.9404 50.8015 82.7588 51.2254 82.7588 51.6674V58.334C82.7588 58.776 82.9404 59.1999 83.2638 59.5125C83.5871 59.825 84.0257 60.0006 84.4829 60.0006ZM86.2071 53.3341H89.6553V56.6674H86.2071V53.3341Z" fill="#6174AE"/>
<path d="M84.4829 73.3337H91.3795C91.8367 73.3337 92.2753 73.1582 92.5986 72.8456C92.922 72.533 93.1036 72.1091 93.1036 71.6671V65.0005C93.1036 64.5585 92.922 64.1346 92.5986 63.8221C92.2753 63.5095 91.8367 63.3339 91.3795 63.3339H84.4829C84.0257 63.3339 83.5871 63.5095 83.2638 63.8221C82.9404 64.1346 82.7588 64.5585 82.7588 65.0005V71.6671C82.7588 72.1091 82.9404 72.533 83.2638 72.8456C83.5871 73.1582 84.0257 73.3337 84.4829 73.3337ZM86.2071 66.6672H89.6553V70.0005H86.2071V66.6672Z" fill="#6174AE"/>
<path d="M8.62062 46.6675H15.5172C15.9744 46.6675 16.413 46.4919 16.7363 46.1794C17.0597 45.8668 17.2413 45.4429 17.2413 45.0009V38.3343C17.2413 37.8923 17.0597 37.4684 16.7363 37.1558C16.413 36.8433 15.9744 36.6677 15.5172 36.6677H8.62062C8.16335 36.6677 7.72481 36.8433 7.40147 37.1558C7.07813 37.4684 6.89648 37.8923 6.89648 38.3343V45.0009C6.89648 45.4429 7.07813 45.8668 7.40147 46.1794C7.72481 46.4919 8.16335 46.6675 8.62062 46.6675ZM10.3448 40.0009H13.793V43.3342H10.3448V40.0009Z" fill="#6174AE"/>
<path d="M22.4136 46.6675H29.3101C29.7674 46.6675 30.206 46.4919 30.5293 46.1794C30.8526 45.8668 31.0343 45.4429 31.0343 45.0009V38.3343C31.0343 37.8923 30.8526 37.4684 30.5293 37.1558C30.206 36.8433 29.7674 36.6677 29.3101 36.6677H22.4136C21.9563 36.6677 21.5178 36.8433 21.1944 37.1558C20.8711 37.4684 20.6895 37.8923 20.6895 38.3343V45.0009C20.6895 45.4429 20.8711 45.8668 21.1944 46.1794C21.5178 46.4919 21.9563 46.6675 22.4136 46.6675ZM24.1377 40.0009H27.586V43.3342H24.1377V40.0009Z" fill="#6174AE"/>
<path d="M8.62062 60.0006H15.5172C15.9744 60.0006 16.413 59.825 16.7363 59.5125C17.0597 59.1999 17.2413 58.776 17.2413 58.334V51.6674C17.2413 51.2254 17.0597 50.8015 16.7363 50.4889C16.413 50.1764 15.9744 50.0008 15.5172 50.0008H8.62062C8.16335 50.0008 7.72481 50.1764 7.40147 50.4889C7.07813 50.8015 6.89648 51.2254 6.89648 51.6674V58.334C6.89648 58.776 7.07813 59.1999 7.40147 59.5125C7.72481 59.825 8.16335 60.0006 8.62062 60.0006ZM10.3448 53.3341H13.793V56.6674H10.3448V53.3341Z" fill="#6174AE"/>
<path d="M22.4136 60.0006H29.3101C29.7674 60.0006 30.206 59.825 30.5293 59.5125C30.8526 59.1999 31.0343 58.776 31.0343 58.334V51.6674C31.0343 51.2254 30.8526 50.8015 30.5293 50.4889C30.206 50.1764 29.7674 50.0008 29.3101 50.0008H22.4136C21.9563 50.0008 21.5178 50.1764 21.1944 50.4889C20.8711 50.8015 20.6895 51.2254 20.6895 51.6674V58.334C20.6895 58.776 20.8711 59.1999 21.1944 59.5125C21.5178 59.825 21.9563 60.0006 22.4136 60.0006ZM24.1377 53.3341H27.586V56.6674H24.1377V53.3341Z" fill="#6174AE"/>
<path d="M15.5172 73.3337C15.9744 73.3337 16.413 73.1582 16.7363 72.8456C17.0597 72.533 17.2413 72.1091 17.2413 71.6671V65.0005C17.2413 64.5585 17.0597 64.1346 16.7363 63.8221C16.413 63.5095 15.9744 63.3339 15.5172 63.3339H8.62062C8.16335 63.3339 7.72481 63.5095 7.40147 63.8221C7.07813 64.1346 6.89648 64.5585 6.89648 65.0005V71.6671C6.89648 72.1091 7.07813 72.533 7.40147 72.8456C7.72481 73.1582 8.16335 73.3337 8.62062 73.3337H15.5172ZM10.3448 66.6672H13.793V70.0005H10.3448V66.6672Z" fill="#6174AE"/>
<path d="M22.4136 73.3337H29.3101C29.7674 73.3337 30.206 73.1582 30.5293 72.8456C30.8526 72.533 31.0343 72.1091 31.0343 71.6671V65.0005C31.0343 64.5585 30.8526 64.1346 30.5293 63.8221C30.206 63.5095 29.7674 63.3339 29.3101 63.3339H22.4136C21.9563 63.3339 21.5178 63.5095 21.1944 63.8221C20.8711 64.1346 20.6895 64.5585 20.6895 65.0005V71.6671C20.6895 72.1091 20.8711 72.533 21.1944 72.8456C21.5178 73.1582 21.9563 73.3337 22.4136 73.3337ZM24.1377 66.6672H27.586V70.0005H24.1377V66.6672Z" fill="#6174AE"/>
<path d="M36.207 46.6675H43.1036C43.5609 46.6675 43.9994 46.4919 44.3228 46.1794C44.6461 45.8668 44.8277 45.4429 44.8277 45.0009V38.3343C44.8277 37.8923 44.6461 37.4684 44.3228 37.1558C43.9994 36.8433 43.5609 36.6677 43.1036 36.6677H36.207C35.7498 36.6677 35.3112 36.8433 34.9879 37.1558C34.6646 37.4684 34.4829 37.8923 34.4829 38.3343V45.0009C34.4829 45.4429 34.6646 45.8668 34.9879 46.1794C35.3112 46.4919 35.7498 46.6675 36.207 46.6675ZM37.9312 40.0009H41.3795V43.3342H37.9312V40.0009Z" fill="#6174AE"/>
<path d="M8.62062 33.3344H15.5172C15.9744 33.3344 16.413 33.1588 16.7363 32.8462C17.0597 32.5337 17.2413 32.1098 17.2413 31.6677V25.0012C17.2413 24.5592 17.0597 24.1352 16.7363 23.8227C16.413 23.5101 15.9744 23.3345 15.5172 23.3345H8.62062C8.16335 23.3345 7.72481 23.5101 7.40147 23.8227C7.07813 24.1352 6.89648 24.5592 6.89648 25.0012V31.6677C6.89648 32.1098 7.07813 32.5337 7.40147 32.8462C7.72481 33.1588 8.16335 33.3344 8.62062 33.3344ZM10.3448 26.6678H13.793V30.0011H10.3448V26.6678Z" fill="#6174AE"/>
<path d="M22.4136 33.3344H29.3101C29.7674 33.3344 30.206 33.1588 30.5293 32.8462C30.8526 32.5337 31.0343 32.1098 31.0343 31.6677V25.0012C31.0343 24.5592 30.8526 24.1352 30.5293 23.8227C30.206 23.5101 29.7674 23.3345 29.3101 23.3345H22.4136C21.9563 23.3345 21.5178 23.5101 21.1944 23.8227C20.8711 24.1352 20.6895 24.5592 20.6895 25.0012V31.6677C20.6895 32.1098 20.8711 32.5337 21.1944 32.8462C21.5178 33.1588 21.9563 33.3344 22.4136 33.3344ZM24.1377 26.6678H27.586V30.0011H24.1377V26.6678Z" fill="#6174AE"/>
<path d="M36.207 33.3344H43.1036C43.5609 33.3344 43.9994 33.1588 44.3228 32.8462C44.6461 32.5337 44.8277 32.1098 44.8277 31.6677V25.0012C44.8277 24.5592 44.6461 24.1352 44.3228 23.8227C43.9994 23.5101 43.5609 23.3345 43.1036 23.3345H36.207C35.7498 23.3345 35.3112 23.5101 34.9879 23.8227C34.6646 24.1352 34.4829 24.5592 34.4829 25.0012V31.6677C34.4829 32.1098 34.6646 32.5337 34.9879 32.8462C35.3112 33.1588 35.7498 33.3344 36.207 33.3344ZM37.9312 26.6678H41.3795V30.0011H37.9312V26.6678Z" fill="#6174AE"/>
<path d="M36.207 60.0006H43.1036C43.5609 60.0006 43.9994 59.825 44.3228 59.5125C44.6461 59.1999 44.8277 58.776 44.8277 58.334V51.6674C44.8277 51.2254 44.6461 50.8015 44.3228 50.4889C43.9994 50.1764 43.5609 50.0008 43.1036 50.0008H36.207C35.7498 50.0008 35.3112 50.1764 34.9879 50.4889C34.6646 50.8015 34.4829 51.2254 34.4829 51.6674V58.334C34.4829 58.776 34.6646 59.1999 34.9879 59.5125C35.3112 59.825 35.7498 60.0006 36.207 60.0006ZM37.9312 53.3341H41.3795V56.6674H37.9312V53.3341Z" fill="#6174AE"/>
<path d="M36.207 73.3337H43.1036C43.5609 73.3337 43.9994 73.1582 44.3228 72.8456C44.6461 72.533 44.8277 72.1091 44.8277 71.6671V65.0005C44.8277 64.5585 44.6461 64.1346 44.3228 63.8221C43.9994 63.5095 43.5609 63.3339 43.1036 63.3339H36.207C35.7498 63.3339 35.3112 63.5095 34.9879 63.8221C34.6646 64.1346 34.4829 64.5585 34.4829 65.0005V71.6671C34.4829 72.1091 34.6646 72.533 34.9879 72.8456C35.3112 73.1582 35.7498 73.3337 36.207 73.3337ZM37.9312 66.6672H41.3795V70.0005H37.9312V66.6672Z" fill="#6174AE"/>
<path d="M98.7414 30.0678L51.7241 17.0846V1.66822C51.7223 1.4098 51.6592 1.15523 51.5396 0.924084C51.4201 0.692941 51.2472 0.491382 51.0345 0.334905C50.8242 0.178683 50.5786 0.0730302 50.3178 0.0266647C50.0569 -0.0197007 49.7885 -0.00544949 49.5345 0.0682423L1.25862 13.4014C0.897281 13.4993 0.578866 13.7085 0.351713 13.9973C0.12456 14.2861 0.00107384 14.6386 0 15.0013V98.3334C0 98.7754 0.18165 99.1993 0.504988 99.5119C0.828327 99.8244 1.26687 100 1.72414 100H98.2759C98.7331 100 99.1717 99.8244 99.495 99.5119C99.8184 99.1993 100 98.7754 100 98.3334V31.6677C99.9989 31.305 99.8754 30.9525 99.6483 30.6637C99.4211 30.3749 99.1027 30.1657 98.7414 30.0678ZM24.1379 96.6667H13.7931V83.3336H24.1379V96.6667ZM37.931 96.6667H27.5862V83.3336H37.931V96.6667ZM48.2759 96.6667H41.3793V81.667C41.3793 81.2249 41.1977 80.801 40.8743 80.4885C40.551 80.1759 40.1124 80.0003 39.6552 80.0003H12.069C11.6117 80.0003 11.1732 80.1759 10.8498 80.4885C10.5265 80.801 10.3448 81.2249 10.3448 81.667V96.6667H3.44828V16.2513L48.2759 3.88485V96.6667ZM72.4138 96.6667H62.069V83.3336H72.4138V96.6667ZM86.2069 96.6667H75.8621V83.3336H86.2069V96.6667ZM96.5517 96.6667H89.6552V81.667C89.6552 81.2249 89.4735 80.801 89.1502 80.4885C88.8268 80.1759 88.3883 80.0003 87.931 80.0003H60.3448C59.8876 80.0003 59.449 80.1759 59.1257 80.4885C58.8023 80.801 58.6207 81.2249 58.6207 81.667V96.6667H51.7241V20.5513L96.5517 32.9177V96.6667Z" fill="#6174AE"/>
</svg>
