<svg width="100" height="100" viewBox="0 0 100 100" fill="none" xmlns="http://www.w3.org/2000/svg">
<g clip-path="url(#clip0_40_477)">
<path d="M37.0328 94.3445L37.2459 94.1333L50.7998 100.158L50.8013 100.158L50.8115 100.158H50.9808C53.6305 100.158 56.2029 99.6383 58.6252 98.6133C60.9641 97.6237 63.0649 96.2071 64.8684 94.4036C66.6719 92.6001 68.0885 90.4994 69.0781 88.1605C70.1031 85.7381 70.6227 83.1658 70.6227 80.516C70.6227 77.3974 69.9127 74.4138 68.5125 71.6506C67.2291 69.1178 65.3766 66.8572 63.1417 65.0925L59.121 54.0036C58.9564 53.5494 58.5249 53.2469 58.0417 53.2469H43.8617C43.3786 53.2469 42.9471 53.5493 42.7824 54.0036L38.7395 65.1539C36.526 66.9204 34.6925 69.1764 33.4238 71.6987L33.6918 71.8335L33.4238 71.6987C32.0404 74.4487 31.3389 77.4161 31.3389 80.5161C31.3389 83.1508 31.8528 85.7099 32.8664 88.1209L33.143 88.0047L32.8664 88.1209C33.8453 90.4491 35.2473 92.5433 37.0328 94.3445ZM50.9808 97.8618H50.8171C41.3434 97.7752 33.6351 89.9943 33.6352 80.5161C33.6352 75.0892 36.1028 70.0779 40.4071 66.7642C40.5802 66.631 40.7117 66.4511 40.7861 66.2457L44.6667 55.5431H57.2368L61.0962 66.1875L61.3783 66.0853L61.0962 66.1875C61.1714 66.3948 61.3046 66.5761 61.4801 66.7097C65.8319 70.0228 68.3266 75.0538 68.3266 80.5161C68.3266 90.0802 60.545 97.8618 50.9808 97.8618ZM37.6905 80.5161C37.6905 87.8447 43.6523 93.8064 50.9808 93.8064C58.3094 93.8064 64.2711 87.8447 64.2711 80.5161C64.2711 73.1875 58.3094 67.2258 50.9808 67.2258C43.6523 67.2258 37.6905 73.1875 37.6905 80.5161ZM39.9867 80.5161C39.9867 74.4542 44.9189 69.522 50.9808 69.522C57.0427 69.522 61.9749 74.4542 61.9749 80.5161C61.9749 86.5779 57.0427 91.5101 50.9808 91.5101C44.9189 91.5101 39.9867 86.5779 39.9867 80.5161Z" fill="#6174AE" stroke="#6174AE" stroke-width="0.6"/>
<path d="M37.6905 80.5161C37.6905 87.8447 43.6522 93.8064 50.9808 93.8064C58.3093 93.8064 64.2711 87.8447 64.2711 80.5161C64.2711 73.1876 58.3093 67.2258 50.9808 67.2258C43.6522 67.2258 37.6905 73.1876 37.6905 80.5161ZM39.9867 80.5161C39.9867 74.4542 44.9189 69.522 50.9808 69.522C57.0427 69.522 61.9749 74.4542 61.9749 80.5161C61.9749 86.5779 57.0427 91.5101 50.9808 91.5101C44.9189 91.5101 39.9867 86.5779 39.9867 80.5161Z" fill="#6174AE" stroke="#6174AE" stroke-width="0.6"/>
<path d="M50.833 97.8618C50.1989 97.8675 49.6895 98.3861 49.6952 99.0201L49.6952 99.0201C49.7008 99.6508 50.2137 100.158 50.8431 100.158L50.8535 100.158M50.833 97.8618L50.8357 98.1618L50.833 97.8618C50.833 97.8618 50.833 97.8618 50.833 97.8618ZM50.833 97.8618C51.9809 97.8515 52.9027 96.9341 52.9027 95.8341C52.9027 94.7238 51.972 93.8064 50.8115 93.8064C50.1774 93.8064 49.6634 93.2924 49.6634 92.6583C49.6634 92.0242 50.1774 91.5102 50.8115 91.5102C53.2265 91.5102 55.1989 93.4452 55.1989 95.8341C55.1989 96.9852 54.7436 98.0696 53.9196 98.8851L53.7086 98.6718L53.9196 98.8851C53.1007 99.6956 52.0109 100.148 50.8535 100.158M50.8535 100.158L50.8508 99.8579L50.8552 100.158L50.8535 100.158Z" fill="#6174AE" stroke="#6174AE" stroke-width="0.6"/>
<path d="M56.8866 71.2209L56.8866 71.2209C56.4342 70.7766 56.4277 70.0497 56.8721 69.5973C57.3165 69.1448 58.0434 69.1384 58.4957 69.5828C58.8476 69.9284 59.2825 70.0775 59.7303 70.0776L56.8866 71.2209ZM56.8866 71.2209C57.6518 71.9725 58.6569 72.3763 59.7382 72.3763L56.8866 71.2209ZM61.9747 67.9358L61.9747 67.9358C61.969 67.3829 61.7478 66.859 61.3481 66.4593C60.8998 66.011 60.8998 65.2841 61.3481 64.8357L61.3481 64.8357C61.7964 64.3874 62.5234 64.3873 62.9718 64.8357C63.7967 65.6606 64.2589 66.7538 64.2708 67.9122C64.2828 69.0786 63.8374 70.1749 63.0167 70.9956L61.9747 67.9358ZM61.9747 67.9358C61.9803 68.4828 61.7735 68.9914 61.393 69.3719C60.9631 69.8018 60.3377 70.0776 59.7304 70.0776L61.9747 67.9358ZM60.0391 72.3659C61.1537 72.2895 62.2106 71.8016 63.0167 70.9956L60.0391 72.3659ZM59.7382 72.3763C59.8379 72.3763 59.9383 72.3728 60.0391 72.3659L59.7382 72.3763Z" fill="#6174AE" stroke="#6174AE" stroke-width="0.6"/>
<path d="M47.8387 59.8225C47.8387 61.5554 49.248 62.9648 50.9809 62.9648C52.7139 62.9648 54.1233 61.5554 54.1233 59.8225C54.1233 58.0895 52.7139 56.6802 50.9809 56.6802C49.248 56.6802 47.8387 58.0895 47.8387 59.8225ZM50.1349 59.8225C50.1349 59.3562 50.5147 58.9764 50.9809 58.9764C51.4472 58.9764 51.827 59.3562 51.827 59.8225C51.827 60.2887 51.4472 60.6686 50.9809 60.6686C50.5147 60.6686 50.1349 60.2887 50.1349 59.8225Z" fill="#6174AE" stroke="#6174AE" stroke-width="0.6"/>
<path d="M89.5947 66.8627L89.5946 66.8626C89.5265 66.8079 89.4681 66.7612 89.4138 66.7212L89.4137 66.7212C89.2312 66.5867 89.0926 66.4012 89.0154 66.1881L89.0154 66.1881L85.1566 55.5407H72.5863L68.705 66.2448C68.7049 66.2448 68.7049 66.2448 68.7049 66.2448C68.6309 66.449 68.5004 66.6281 68.3286 66.7611C67.4123 67.4709 66.5633 68.2716 65.8053 69.141L65.8053 69.141C65.3885 69.6189 64.6633 69.6684 64.1854 69.2518L64.1853 69.2517C63.7075 68.835 63.6579 68.1098 64.0746 67.6319L64.0746 67.6319C64.857 66.7346 65.7248 65.9024 66.6578 65.1543L70.702 54.0013L70.702 54.0013C70.8667 53.5471 71.2981 53.2446 71.7813 53.2446H85.9617C86.4449 53.2446 86.8764 53.5471 87.0411 54.0015L91.0619 65.096L91.0921 65.1201C91.1224 65.1423 91.1515 65.1659 91.1793 65.1906C93.4169 66.9817 95.2661 69.2808 96.5299 71.8444C97.8652 74.5532 98.5423 77.471 98.5423 80.5144C98.5423 83.1643 98.0227 85.7369 96.9977 88.1593C96.0081 90.4983 94.5915 92.5991 92.788 94.4026C90.9845 96.2061 88.8837 97.6227 86.5447 98.6123C84.1224 99.6372 81.5498 100.157 78.8999 100.157H78.7302L78.7196 100.157L78.718 100.157L89.5947 66.8627ZM89.5947 66.8627L89.6676 66.921C89.6784 66.9303 89.6901 66.9401 89.7025 66.9499C93.8615 70.2571 96.2461 75.2003 96.2461 80.5144C96.2461 90.0788 88.4643 97.8606 78.8998 97.8606H78.7357C73.7784 97.8134 69.066 95.637 65.8063 91.8888C65.3902 91.4103 64.665 91.3598 64.1866 91.7759L89.5947 66.8627ZM89.2806 66.2135L89.2808 66.2153L89.2808 66.2156C89.2808 66.2149 89.2807 66.2142 89.2806 66.2135ZM90.223 67.1781C90.2377 67.1806 90.2525 67.1828 90.2675 67.1846C90.2844 67.1868 90.3014 67.1886 90.3185 67.19C90.3432 67.192 90.3681 67.1932 90.3932 67.1936C90.397 67.1936 90.4009 67.1937 90.4048 67.1937L90.4051 67.1412C90.4056 67.1416 90.4061 67.1421 90.4067 67.1425V67.1937H90.4067H90.4067H90.4067H90.4067H90.4067H90.4068H90.4068H90.4068H90.4068H90.4068H90.4068H90.4068H90.4069H90.4069H90.4069H90.4069H90.4069H90.4069H90.407H90.407H90.407H90.407H90.407H90.407H90.4071H90.4071H90.4071H90.4071H90.4071H90.4071H90.4072H90.4072H90.4072H90.4072H90.4072H90.4072H90.4072H90.4073H90.4073H90.4073H90.4073H90.4073H90.4073H90.4074H90.4074H90.4074H90.4074H90.4074H90.4074H90.4075H90.4075H90.4075H90.4075H90.4075H90.4075H90.4076H90.4076H90.4076H90.4076H90.4076H90.4076H90.4076H90.4077H90.4077H90.4077H90.4077H90.4077H90.4077H90.4078H90.4078H90.4078H90.4078H90.4078H90.4078H90.4079H90.4079H90.4079H90.4079H90.4079H90.4079H90.408H90.408H90.408H90.408H90.408H90.408H90.4081H90.4081H90.4081H90.4081H90.4081H90.4081H90.4081H90.4082H90.4082H90.4082H90.4082H90.4082H90.4082H90.4083H90.4083H90.4083H90.4083H90.4083H90.4083H90.4084H90.4084H90.4084H90.4084H90.4084H90.4084H90.4085H90.4085H90.4085H90.4085H90.4085H90.4085H90.4086H90.4086H90.4086H90.4086H90.4086H90.4086H90.4087H90.4087H90.4087H90.4087H90.4087V67.1443C90.4088 67.1444 90.4089 67.1445 90.409 67.1446V67.1937H90.409H90.4091H90.4091H90.4091H90.4091H90.4091H90.4091H90.4092H90.4092H90.4092H90.4092H90.4092H90.4092H90.4092H90.4093H90.4093H90.4093H90.4093H90.4093H90.4093H90.4094H90.4094H90.4094H90.4094H90.4094H90.4094H90.4094H90.4095H90.4095H90.4095H90.4095H90.4095H90.4095H90.4096H90.4096H90.4096H90.4096H90.4096H90.4096H90.4097H90.4097H90.4097H90.4097H90.4097H90.4097H90.4097H90.4098H90.4098H90.4098H90.4098H90.4098H90.4098H90.4099H90.4099H90.4099H90.4099H90.4099H90.4099H90.41H90.41H90.41H90.41H90.41H90.41H90.4101H90.4101H90.4101H90.4101H90.4101H90.4101H90.4102H90.4102H90.4102H90.4102H90.4102H90.4102H90.4103H90.4103H90.4103H90.4103H90.4103H90.4103H90.4104H90.4104H90.4104H90.4104H90.4104H90.4104H90.4105H90.4105H90.4105H90.4105H90.4105H90.4105H90.4106H90.4106H90.4106H90.4106H90.4106H90.4106H90.4107H90.4107H90.4107H90.4107H90.4107H90.4107H90.4108H90.4108H90.4108H90.4108H90.4108H90.4108H90.4109H90.4109H90.4109H90.4109H90.4109H90.4109H90.411H90.411H90.411H90.411H90.411H90.411H90.4111H90.4111H90.4111H90.4111L90.223 67.1781ZM69.4179 86.0719L69.1594 86.2242L69.4179 86.0719C69.0961 85.5256 68.3924 85.3434 67.8459 85.6653C67.2996 85.9871 67.1175 86.6909 67.4393 87.2373C68.5949 89.1994 70.2431 90.8441 72.2061 91.9939C74.2316 93.1804 76.5462 93.8073 78.8999 93.8073C86.2299 93.8073 92.1928 87.8444 92.1929 80.5143C92.1929 73.1873 86.2298 67.227 78.8999 67.227C76.5456 67.227 74.2304 67.8539 72.2042 69.0402C70.239 70.1909 68.5912 71.836 67.4387 73.7982C67.1175 74.3449 67.3004 75.0484 67.8471 75.3696L67.8471 75.3696C68.3938 75.6907 69.0974 75.5079 69.4186 74.9612C71.3888 71.6069 75.0227 69.5231 78.8999 69.5231C84.9634 69.5231 89.8967 74.4541 89.8967 80.5143C89.8967 86.5777 84.9633 91.5111 78.8999 91.5111C75.0284 91.5111 71.394 89.4271 69.4179 86.0719Z" fill="#6174AE" stroke="#6174AE" stroke-width="0.6"/>
<path d="M78.7633 100.158C78.1339 100.158 77.621 99.6507 77.6154 99.0201C77.6097 98.3861 78.1191 97.8675 78.7532 97.8618M78.7633 100.158L78.7558 98.1618M78.7633 100.158L78.7737 100.158M78.7633 100.158L78.7737 100.158M78.7532 97.8618L78.7558 98.1618M78.7532 97.8618C78.7532 97.8618 78.7532 97.8618 78.7531 97.8618L78.7558 98.1618M78.7532 97.8618C79.901 97.8515 80.8229 96.9341 80.8229 95.8341C80.8229 94.7238 79.8921 93.8064 78.7316 93.8064C78.0975 93.8064 77.5835 93.2924 77.5835 92.6583C77.5835 92.0241 78.0975 91.5102 78.7316 91.5102C81.1467 91.5102 83.1191 93.4452 83.1191 95.8341C83.1191 96.9852 82.6637 98.0695 81.8398 98.885M78.7558 98.1618C80.061 98.1501 81.1229 97.1059 81.1229 95.8341C81.1229 94.5506 80.0502 93.5064 78.7316 93.5064C78.2632 93.5064 77.8835 93.1267 77.8835 92.6583C77.8835 92.1898 78.2632 91.8102 78.7316 91.8102C80.9854 91.8102 82.8191 93.6153 82.8191 95.8341C82.8191 96.9043 82.3963 97.9121 81.6287 98.6718M81.8398 98.885L81.6287 98.6718M81.8398 98.885C81.0209 99.6955 79.9311 100.148 78.7737 100.158M81.8398 98.885C81.8398 98.885 81.8398 98.885 81.8398 98.885L81.6287 98.6718M81.6287 98.6718L78.7737 100.158M78.7737 100.158L78.771 99.8579L78.7754 100.158L78.7737 100.158Z" fill="#6174AE" stroke="#6174AE" stroke-width="0.6"/>
<path d="M84.8068 71.2213L84.8067 71.2213C84.3544 70.777 84.3479 70.0501 84.7922 69.5977L84.8068 71.2213ZM84.8068 71.2213C85.5718 71.9727 86.5768 72.3765 87.6579 72.3765L84.8068 71.2213ZM89.895 67.9358L89.895 67.9357C89.8893 67.3829 89.668 66.859 89.2684 66.4593C88.82 66.011 88.82 65.2841 89.2683 64.8357L89.2684 64.8357C89.7167 64.3873 90.4437 64.3873 90.892 64.8357M89.895 67.9358L89.4805 66.2472C89.1493 65.916 89.1493 65.379 89.4805 65.0478C89.8117 64.7166 90.3487 64.7166 90.6799 65.0478C91.4499 65.8177 91.88 66.8361 91.8911 67.9153C91.9022 69.0016 91.488 70.0202 90.7248 70.7834L90.9369 70.9955M89.895 67.9358C89.9006 68.4828 89.6937 68.9914 89.3133 69.3718C88.5425 70.1426 87.2264 70.3792 86.4158 69.5832M89.895 67.9358L86.4158 69.5832M90.892 64.8357L90.6799 65.0478L90.892 64.8357C90.892 64.8357 90.892 64.8357 90.892 64.8357ZM90.892 64.8357C91.7169 65.6606 92.1791 66.7538 92.191 67.9122C92.203 69.0785 91.7576 70.1749 90.9369 70.9955M90.9369 70.9955C90.9369 70.9955 90.9369 70.9955 90.9369 70.9955M90.9369 70.9955L90.9369 70.9955M90.9369 70.9955C90.1309 71.8015 89.074 72.2896 87.9594 72.3661L87.9594 72.3661C87.8584 72.373 87.7578 72.3765 87.6579 72.3765L90.9369 70.9955ZM86.4158 69.5832C85.9635 69.1388 85.2366 69.1453 84.7922 69.5977L86.4158 69.5832Z" fill="#6174AE" stroke="#6174AE" stroke-width="0.6"/>
<path d="M75.7588 59.8224C75.7588 61.5554 77.1682 62.9647 78.9011 62.9647C80.6341 62.9647 82.0435 61.5554 82.0435 59.8224C82.0435 58.0895 80.6341 56.6801 78.9011 56.6801C77.1682 56.6801 75.7588 58.0895 75.7588 59.8224ZM78.0551 59.8224C78.0551 59.3562 78.4349 58.9763 78.9011 58.9763C79.3674 58.9763 79.7472 59.3562 79.7472 59.8224C79.7472 60.2887 79.3674 60.6685 78.9011 60.6685C78.4349 60.6685 78.0551 60.2887 78.0551 59.8224Z" fill="#6174AE" stroke="#6174AE" stroke-width="0.6"/>
<path d="M79.2953 54.3927C79.2953 55.0268 79.8093 55.5407 80.4434 55.5407C81.0775 55.5407 81.5915 55.0267 81.5916 54.3927V47.4834C81.5916 38.2547 74.0839 30.7471 64.8552 30.7471C55.6296 30.7471 48.1246 38.2548 48.1246 47.4834V54.3927C48.1246 55.0268 48.6386 55.5407 49.2727 55.5407C49.9067 55.5407 50.4208 55.0268 50.4208 54.3927V47.4834C50.4208 39.5213 56.8964 33.0433 64.8552 33.0433C72.8172 33.0433 79.2953 39.5214 79.2953 47.4834V54.3927Z" fill="#6174AE" stroke="#6174AE" stroke-width="0.6"/>
<path d="M75.8746 54.3927C75.8746 55.0268 76.3886 55.5408 77.0227 55.5408C77.6567 55.5408 78.1708 55.0267 78.1708 54.3927V47.4834C78.1708 40.1409 72.1977 34.1678 64.8552 34.1678C57.5157 34.1678 51.5452 40.141 51.5452 47.4834V54.3927C51.5452 55.0268 52.0592 55.5408 52.6933 55.5408C53.3274 55.5408 53.8414 55.0268 53.8414 54.3927V47.4834C53.8414 41.4074 58.7826 36.464 64.8552 36.464C70.9311 36.464 75.8746 41.4075 75.8746 47.4834V54.3927Z" fill="#6174AE" stroke="#6174AE" stroke-width="0.6"/>
<path d="M29.5787 54.9387L29.5787 54.9387C30.2081 54.8609 30.6551 54.2876 30.5772 53.6583L30.0097 49.0699C29.6888 46.4756 27.4761 44.5197 24.862 44.5197H18.307C15.693 44.5197 13.4802 46.4756 13.1594 49.0699L12.5918 53.6583L12.8896 53.6952L12.5918 53.6583C12.514 54.2876 12.961 54.8609 13.5903 54.9387C13.6378 54.9446 13.6852 54.9475 13.7323 54.9475C14.3038 54.9475 14.7987 54.5219 14.8707 53.9402L15.4382 49.3519C15.617 47.9064 16.8506 46.816 18.307 46.816H24.862C26.3185 46.816 27.5521 47.9064 27.7309 49.3519L28.2984 53.9402C28.3762 54.5695 28.9495 55.0164 29.5787 54.9387Z" fill="#6174AE" stroke="#6174AE" stroke-width="0.6"/>
<path d="M15.3436 37.6754C15.3436 41.117 18.143 43.9164 21.5845 43.9164C25.0261 43.9164 27.8255 41.117 27.8255 37.6754C27.8255 34.2339 25.0261 31.4345 21.5845 31.4345C18.143 31.4345 15.3436 34.2339 15.3436 37.6754ZM17.6398 37.6754C17.6398 35.5006 19.4097 33.7307 21.5845 33.7307C23.7594 33.7307 25.5293 35.5006 25.5293 37.6754C25.5293 39.8503 23.7594 41.6202 21.5845 41.6202C19.4096 41.6202 17.6398 39.8503 17.6398 37.6754Z" fill="#6174AE" stroke="#6174AE" stroke-width="0.6"/>
<path d="M11.3025 54.9474H31.8665C34.2403 54.9474 36.1709 53.0167 36.1709 50.643V30.079C36.1709 27.7053 34.2402 25.7746 31.8665 25.7746H11.3025C8.92878 25.7746 6.9981 27.7053 6.9981 30.079V50.643C6.9981 53.0167 8.92877 54.9474 11.3025 54.9474ZM9.29429 30.079C9.29429 28.9719 10.1954 28.0708 11.3025 28.0708H31.8665C32.9736 28.0708 33.8747 28.9719 33.8747 30.079V50.643C33.8747 51.75 32.9736 52.6512 31.8665 52.6512H11.3025C10.1954 52.6512 9.29429 51.75 9.29429 50.643V30.079Z" fill="#6174AE" stroke="#6174AE" stroke-width="0.6"/>
<path d="M3.17795 19.4973L3.38044 19.2759L3.17795 19.4973C4.20584 20.4375 5.54216 20.9552 6.93961 20.9552H69.3886C70.0023 20.9552 70.5021 21.455 70.5021 22.0687V33.4559C70.5021 34.09 71.0161 34.604 71.6502 34.604C72.2842 34.604 72.7983 34.09 72.7983 33.4559V22.0687C72.7983 20.1883 71.2689 18.659 69.3886 18.659H6.93965C5.22492 18.659 3.81492 17.3414 3.76743 15.7552L3.76739 15.7541C3.73974 14.9321 4.03776 14.157 4.60745 13.5678L4.39178 13.3593L4.60745 13.5678C5.17713 12.9786 5.93991 12.655 6.75869 12.655H12.6219C13.256 12.655 13.77 12.141 13.77 11.5069C13.77 10.8728 13.256 10.3588 12.6219 10.3588H6.75869C5.31327 10.3588 3.96184 10.9322 2.95671 11.9717L2.9567 11.9717C1.95143 13.0114 1.42389 14.3831 1.47235 15.8276C1.51443 17.228 2.12236 18.5317 3.17795 19.4973Z" fill="#6174AE" stroke="#6174AE" stroke-width="0.6"/>
<path d="M4.8768 98.5284H43.3457C43.9798 98.5284 44.4939 98.0144 44.4938 97.3803C44.4938 96.7462 43.9798 96.2322 43.3457 96.2322H4.8768C4.26308 96.2322 3.76328 95.7324 3.76328 95.1187V16.0242C3.76328 15.3902 3.24926 14.8761 2.61519 14.8761C1.98111 14.8761 1.46709 15.3902 1.46709 16.0242V95.1187C1.46709 96.9991 2.99641 98.5284 4.8768 98.5284Z" fill="#6174AE" stroke="#6174AE" stroke-width="0.6"/>
<path d="M78.8216 16.0996L78.8215 16.0995C78.561 15.8453 78.207 15.7023 77.8198 15.7023H67.2976C66.6635 15.7023 66.1495 15.1882 66.1495 14.5542C66.1495 13.9201 66.6634 13.4061 67.2976 13.4061H77.8198C78.7992 13.4061 79.7215 13.7746 80.4151 14.4464L80.4912 14.5174L80.4915 14.5177L80.2868 14.737C80.2977 14.7472 80.3083 14.7576 80.3187 14.7684L78.8216 16.0996ZM78.8216 16.0996C78.8272 16.1051 78.8335 16.1112 78.8404 16.1175C78.8405 16.1177 78.8407 16.1178 78.8408 16.118L78.8997 16.1729L78.8216 16.0996Z" fill="#6174AE" stroke="#6174AE" stroke-width="0.6"/>
<path d="M67.4902 1.37639L67.4901 1.37633C67.4661 1.34696 67.4405 1.31874 67.4135 1.2918L67.3854 1.26364C66.5904 0.359454 65.446 -0.158002 64.2386 -0.158002H13.9289C12.5746 -0.158002 11.4747 0.945978 11.4747 2.30186V19.8068C11.4747 20.4409 11.9887 20.9549 12.6228 20.9549C13.2569 20.9549 13.7708 20.4409 13.7709 19.8068V2.30182C13.7709 2.20837 13.8455 2.13819 13.9289 2.13819H64.2386C64.7925 2.13819 65.3157 2.3781 65.6748 2.79582C65.6939 2.81803 65.7136 2.83919 65.7337 2.85931L65.7454 2.87101C66.0103 3.21147 66.1493 3.61631 66.1493 4.04891V14.5541C66.1493 15.1882 66.6633 15.7022 67.2974 15.7022C67.9316 15.7022 68.4455 15.1882 68.4455 14.5541V4.04891C68.4455 3.06428 68.1146 2.13874 67.4902 1.37639Z" fill="#6174AE" stroke="#6174AE" stroke-width="0.6"/>
<path d="M65.7393 1.23037L65.7393 1.23033C66.1903 0.784542 66.9172 0.788618 67.3629 1.23945C67.363 1.23945 67.363 1.23945 67.363 1.23946L80.5256 14.5503C80.9715 15.0011 80.9674 15.7281 80.5166 16.1739C80.2929 16.3952 80.0005 16.5056 79.7093 16.5056C79.4138 16.5056 79.1174 16.3919 78.8929 16.1648L65.7393 1.23037ZM65.7393 1.23037C65.2885 1.6762 65.2844 2.40314 65.7302 2.854C65.7302 2.854 65.7302 2.85401 65.7302 2.85401L78.8929 16.1648L65.7393 1.23037Z" fill="#6174AE" stroke="#6174AE" stroke-width="0.6"/>
</g>
<defs>
<clipPath id="clip0_40_477">
<rect width="100" height="100" fill="white"/>
</clipPath>
</defs>
</svg>
