<svg width="100" height="100" viewBox="0 0 100 100" fill="none" xmlns="http://www.w3.org/2000/svg">
<path d="M87.0332 77.7729C87.8424 77.7729 88.498 77.117 88.498 76.308V24.8496C88.498 24.458 88.3412 24.0828 88.0627 23.8076L64.3928 0.422852C64.1186 0.151953 63.7488 0 63.3633 0H24.2129C17.2039 0 11.502 5.70215 11.502 12.7109V87.2891C11.502 94.2979 17.2039 100 24.2129 100H75.7871C82.7961 100 88.498 94.2979 88.498 87.2891V82.1674C88.498 81.3584 87.8424 80.7025 87.0332 80.7025C86.224 80.7025 85.5684 81.3584 85.5684 82.1674V87.2891C85.5684 92.6824 81.1805 97.0703 75.7871 97.0703H24.2129C18.8195 97.0703 14.4316 92.6824 14.4316 87.2891V12.7109C14.4316 7.31758 18.8193 2.92969 24.2129 2.92969H61.8984V13.6055C61.8984 20.6131 67.5996 26.3145 74.6074 26.3145H85.5684V76.308C85.5684 77.117 86.2242 77.7729 87.0332 77.7729ZM64.8281 13.6055V4.97129L83.4662 23.3848H74.6074C69.2152 23.3848 64.8281 18.9979 64.8281 13.6055Z" fill="#6174AE"/>
<path d="M37.3435 23.1447C36.5729 22.9 35.7489 23.3268 35.504 24.0977C35.0315 25.5859 34.7917 27.1361 34.7909 28.7053C34.7909 28.7074 34.7905 28.7096 34.7905 28.7119C34.7905 28.7143 34.7909 28.7164 34.7909 28.7186C34.794 37.1021 41.6155 43.9217 49.9997 43.9217C58.3839 43.9217 65.2054 37.102 65.2085 28.7186C65.2085 28.7164 65.2089 28.7141 65.2089 28.7119C65.2089 28.709 65.2085 28.7063 65.2085 28.7035C65.2036 20.3205 58.3829 13.502 49.9999 13.502C45.7085 13.502 41.5944 15.3293 38.7124 18.5154C38.1698 19.1154 38.2161 20.0418 38.8161 20.5844C39.4161 21.1271 40.3425 21.0809 40.8853 20.4807C41.7601 19.5135 42.7755 18.7016 43.8862 18.0645C43.8392 18.1525 43.7905 18.2379 43.7444 18.3283C42.4993 20.773 41.7431 23.8971 41.572 27.2471H37.8081C37.8995 26.4791 38.0622 25.7219 38.2964 24.9842C38.5411 24.2131 38.1144 23.3896 37.3435 23.1447ZM37.8108 30.1768H41.572C41.7431 33.5268 42.4993 36.6508 43.7444 39.0955C43.7894 39.1838 43.8368 39.267 43.8827 39.3531C40.605 37.4613 38.2796 34.1014 37.8108 30.1768ZM49.9999 40.9914C47.5624 40.9914 44.8667 36.6193 44.5062 30.1768H55.4936C55.1331 36.6193 52.4374 40.9914 49.9999 40.9914ZM56.1171 39.3531C56.1632 39.267 56.2105 39.1838 56.2554 39.0955C57.5005 36.6508 58.2567 33.5268 58.4278 30.1768H62.189C61.7202 34.1014 59.3948 37.4613 56.1171 39.3531ZM62.1888 27.2471H58.4278C58.2567 23.8971 57.5005 20.7732 56.2554 18.3283C56.2105 18.24 56.163 18.1568 56.1171 18.0707C59.3942 19.9627 61.7196 23.3227 62.1888 27.2471ZM49.9999 16.4326C52.4374 16.4326 55.1331 20.8047 55.4936 27.2473H44.5062C44.8667 20.8047 47.5624 16.4326 49.9999 16.4326Z" fill="#6174AE"/>
<path d="M70.4256 48.6271H29.5745C28.7653 48.6271 28.1096 49.283 28.1096 50.092C28.1096 50.901 28.7653 51.5568 29.5745 51.5568H70.4256C71.2348 51.5568 71.8905 50.901 71.8905 50.092C71.8905 49.283 71.2348 48.6271 70.4256 48.6271Z" fill="#6174AE"/>
<path d="M70.4255 57.0266H47.2056C46.3964 57.0266 45.7407 57.6824 45.7407 58.4914C45.7407 59.3004 46.3964 59.9562 47.2056 59.9562H70.4255C71.2347 59.9562 71.8903 59.3004 71.8903 58.4914C71.8903 57.6824 71.2347 57.0266 70.4255 57.0266Z" fill="#6174AE"/>
<path d="M29.5745 59.9562H41.3463C42.1555 59.9562 42.8112 59.3004 42.8112 58.4914C42.8112 57.6824 42.1555 57.0266 41.3463 57.0266H29.5745C28.7653 57.0266 28.1096 57.6824 28.1096 58.4914C28.1096 59.3004 28.7653 59.9562 29.5745 59.9562Z" fill="#6174AE"/>
<path d="M70.4256 65.4258H29.5745C28.7653 65.4258 28.1096 66.0816 28.1096 66.8906C28.1096 67.6996 28.7653 68.3555 29.5745 68.3555H70.4256C71.2348 68.3555 71.8905 67.6996 71.8905 66.8906C71.8905 66.0816 71.2348 65.4258 70.4256 65.4258Z" fill="#6174AE"/>
<path d="M70.4256 73.8252H29.5745C28.7653 73.8252 28.1096 74.4811 28.1096 75.29C28.1096 76.099 28.7653 76.7549 29.5745 76.7549H70.4256C71.2348 76.7549 71.8905 76.099 71.8905 75.29C71.8905 74.4811 71.2348 73.8252 70.4256 73.8252Z" fill="#6174AE"/>
</svg>
