<svg width="100" height="100" viewBox="0 0 100 100" fill="none" xmlns="http://www.w3.org/2000/svg">
<g clip-path="url(#clip0_35_49)">
<path d="M100 46.6667C100 46.2246 99.8244 45.8007 99.5118 45.4882C99.1993 45.1756 98.7754 45 98.3333 45H79.7633C79.3996 43.5707 78.5699 42.3033 77.4055 41.3982C76.241 40.493 74.8082 40.0016 73.3333 40.0016C71.8585 40.0016 70.4256 40.493 69.2612 41.3982C68.0968 42.3033 67.2671 43.5707 66.9033 45H48.3333C47.8913 45 47.4674 45.1756 47.1548 45.4882C46.8423 45.8007 46.6667 46.2246 46.6667 46.6667C46.6667 47.1087 46.8423 47.5326 47.1548 47.8452C47.4674 48.1577 47.8913 48.3333 48.3333 48.3333H52.1283L46.8867 57.5L46.9083 57.5133C46.7557 57.7601 46.6723 58.0433 46.6667 58.3333V59.225C45.2549 58.723 43.7755 58.437 42.2783 58.3767L36.6667 54.1667V49.3883C38.9864 48.0501 40.9543 46.1788 42.4074 43.9293C43.8605 41.6797 44.7572 39.1165 45.0233 36.4517C46.3973 36.0898 47.6193 35.2975 48.5104 34.1908C49.4014 33.0841 49.9147 31.7212 49.975 30.3017C51.0263 25.8305 51.5934 21.2592 51.6667 16.6667C51.6678 15.3613 51.545 14.0588 51.3 12.7767C50.8759 10.7365 49.8098 8.8858 48.2577 7.49542C46.7057 6.10504 44.7493 5.24807 42.675 5.05C42.0354 4.14748 41.2272 3.37722 40.295 2.78167C37.5367 0.936667 33.5117 0 28.3333 0C18.7133 0 15.1917 3.26167 13.9833 5.05333C12.088 5.25146 10.288 5.9844 8.79333 7.16667C7.01842 8.57353 5.80246 10.5664 5.36333 12.7883C5.12054 14.0668 4.99889 15.3653 5 16.6667C5.07386 21.2591 5.641 25.8304 6.69167 30.3017C6.74944 31.7289 7.27268 33.0981 8.18151 34.2001C9.09035 35.3022 10.3348 36.0765 11.725 36.405C11.9622 39.0736 12.8379 41.646 14.2781 43.9051C15.7183 46.1642 17.6808 48.0437 20 49.385V54.1667L14.405 58.3633C10.536 58.5169 6.8762 60.1607 4.19138 62.9509C1.50656 65.741 0.00469683 69.4613 0 73.3333L0 93.3333C0 95.1014 0.702379 96.7971 1.95262 98.0474C3.20286 99.2976 4.89856 100 6.66667 100H50C51.7681 100 53.4638 99.2976 54.714 98.0474C55.9643 96.7971 56.6667 95.1014 56.6667 93.3333V73.3333C56.6625 71.0185 56.1205 68.7362 55.0833 66.6667H56.6667C58.4348 66.6667 60.1305 65.9643 61.3807 64.714C62.631 63.4638 63.3333 61.7681 63.3333 60V58.3333C63.3265 58.0456 63.2431 57.7648 63.0917 57.52L63.1133 57.5067L57.8717 48.3333H66.9033C67.1637 49.3312 67.6534 50.2546 68.3333 51.03V83.57C66.9064 83.9384 65.6418 84.7692 64.7372 85.9326C63.8325 87.096 63.3389 88.5263 63.3333 90V90.3067C62.3618 90.6501 61.5202 91.2854 60.9235 92.1255C60.3268 92.9656 60.0043 93.9696 60 95V96.6667C60 97.5507 60.3512 98.3986 60.9763 99.0237C61.6014 99.6488 62.4493 100 63.3333 100H83.3333C84.2174 100 85.0652 99.6488 85.6904 99.0237C86.3155 98.3986 86.6667 97.5507 86.6667 96.6667V95C86.6624 93.9696 86.3399 92.9656 85.7432 92.1255C85.1465 91.2854 84.3048 90.6501 83.3333 90.3067V90C83.3278 88.5263 82.8341 87.096 81.9295 85.9326C81.0249 84.7692 79.7602 83.9384 78.3333 83.57V51.03C79.0133 50.2546 79.5029 49.3312 79.7633 48.3333H88.795L83.5533 57.5L83.575 57.5133C83.4224 57.7601 83.3389 58.0433 83.3333 58.3333V60C83.3333 61.7681 84.0357 63.4638 85.286 64.714C86.5362 65.9643 88.2319 66.6667 90 66.6667H93.3333C95.1014 66.6667 96.7971 65.9643 98.0474 64.714C99.2976 63.4638 100 61.7681 100 60V58.3333C99.9932 58.0456 99.9098 57.7648 99.7583 57.52L99.78 57.5067L94.5383 48.3333H98.3333C98.7754 48.3333 99.1993 48.1577 99.5118 47.8452C99.8244 47.5326 100 47.1087 100 46.6667ZM55 50.0267L58.795 56.6667H51.205L55 50.0267ZM25.8483 96.6667L10 74.8583L13.9683 66.24C15.1033 72.865 18.29 83.42 27.2433 91.255C27.547 91.5204 27.9367 91.6666 28.34 91.6666C28.7433 91.6666 29.133 91.5204 29.4367 91.255C38.4067 83.4067 41.5883 72.8267 42.7183 66.2033L46.705 74.785L30.8167 96.6667H25.8483ZM26.5367 70H30.13L31.32 84.455C30.3989 85.6154 29.4011 86.7129 28.3333 87.74C27.2655 86.7117 26.2678 85.6132 25.3467 84.4517L26.5367 70ZM34.305 80.055L33.3917 68.965L34.17 68.1867C34.643 68.354 35.1547 68.3789 35.6417 68.2583C36.1287 68.1377 36.5697 67.877 36.91 67.5083L39.5533 64.6883C38.7563 70.0879 36.9775 75.296 34.305 80.055ZM30.9717 66.6667H25.69L25 65.9833L28.3333 62.4367L31.6667 65.9833L30.9717 66.6667ZM21.6667 68.3333C21.9507 68.3303 22.2323 68.2801 22.5 68.185L23.28 68.965L22.3683 80.045C19.7045 75.2897 17.9279 70.0895 17.125 64.6983L19.7783 67.5317C20.023 67.7854 20.3163 67.9873 20.6408 68.125C20.9652 68.2628 21.3142 68.3336 21.6667 68.3333ZM35 64.6667L30.8217 60.2167L35 57.0833L39.1783 60.2167L35 64.6667ZM8.63833 13.415C8.92424 11.9743 9.71502 10.6829 10.8683 9.77333C12.0418 8.83751 13.4991 8.32958 15 8.33333C15.3377 8.3226 15.6651 8.21405 15.9423 8.02085C16.2195 7.82766 16.4347 7.55813 16.5617 7.245C16.5783 7.205 18.2867 3.33333 28.3333 3.33333C33.9483 3.33333 36.9283 4.54 38.445 5.555C39.1246 5.95007 39.6902 6.51453 40.0867 7.19333C40.1972 7.52507 40.4092 7.81366 40.6927 8.01825C40.9763 8.22284 41.317 8.33307 41.6667 8.33333C43.1499 8.31692 44.5932 8.81341 45.7525 9.73881C46.9117 10.6642 47.7157 11.9617 48.0283 13.4117C48.2316 14.4847 48.3337 15.5745 48.3333 16.6667C48.3057 19.4369 48.0672 22.201 47.62 24.935C46.8395 24.2753 45.9172 23.8048 44.925 23.56C44.6226 21.1725 43.6102 18.9309 42.0188 17.1256C40.4275 15.3203 38.3306 14.0346 36 13.435C35.5212 13.295 35.0108 13.307 34.5391 13.4694C34.0674 13.6318 33.6578 13.9366 33.3667 14.3417C32.7882 15.1183 32.0246 15.7378 31.1455 16.1439C30.2664 16.55 29.2997 16.7297 28.3333 16.6667C27.3565 16.7297 26.3795 16.5455 25.4927 16.131C24.606 15.7164 23.8381 15.085 23.26 14.295C22.9681 13.9029 22.5628 13.61 22.099 13.4559C21.6351 13.3018 21.1351 13.2939 20.6667 13.4333C18.3333 14.0361 16.2319 15.3189 14.6294 17.1188C13.0268 18.9186 11.9956 21.1543 11.6667 23.5417C10.697 23.7945 9.79765 24.2647 9.03667 24.9167C8.59364 22.1884 8.35852 19.4305 8.33333 16.6667C8.3328 15.5756 8.43492 14.4869 8.63833 13.415ZM15.0467 36.13C14.9785 35.438 14.6942 34.785 14.2341 34.2635C13.774 33.7421 13.1615 33.3788 12.4833 33.225C11.769 33.0379 11.137 32.6188 10.6866 32.0336C10.2362 31.4485 9.99289 30.7303 9.9948 29.9919C9.99671 29.2535 10.2438 28.5366 10.6972 27.9537C11.1506 27.3709 11.7847 26.9551 12.5 26.7717C13.1683 26.6165 13.7725 26.2589 14.2301 25.7477C14.6877 25.2364 14.9763 24.5964 15.0567 23.915C15.2657 22.2896 15.9368 20.7583 16.9903 19.503C18.0438 18.2477 19.4355 17.3211 21 16.8333C21.9072 17.8766 23.0372 18.7028 24.3064 19.2509C25.5757 19.799 26.9519 20.055 28.3333 20C29.7148 20.055 31.091 19.799 32.3602 19.2509C33.6295 18.7028 34.7595 17.8766 35.6667 16.8333C37.2314 17.321 38.6233 18.2475 39.6771 19.5028C40.7309 20.7581 41.4023 22.2894 41.6117 23.915C41.6919 24.5962 41.9803 25.236 42.4376 25.7472C42.8948 26.2585 43.4986 26.6162 44.1667 26.7717C44.8819 26.9553 45.5159 27.3712 45.9692 27.9542C46.4224 28.5371 46.6693 29.2541 46.671 29.9925C46.6727 30.731 46.4292 31.4491 45.9787 32.0341C45.5281 32.6192 44.896 33.038 44.1817 33.225C43.5041 33.3784 42.892 33.7413 42.4322 34.2621C41.9724 34.7829 41.6882 35.4353 41.62 36.1267C41.3429 39.4602 39.8229 42.5677 37.3616 44.8329C34.9003 47.0981 31.6775 48.3554 28.3325 48.3554C24.9875 48.3554 21.7647 47.0981 19.3034 44.8329C16.8421 42.5677 15.3221 39.4602 15.045 36.1267L15.0467 36.13ZM28.3333 51.6667C30.0309 51.663 31.7176 51.3959 33.3333 50.875V54.1667L28.3333 57.9167L23.3333 54.1667V50.875C24.949 51.396 26.6357 51.6631 28.3333 51.6667ZM21.6667 57.0833L25.845 60.2167L21.6667 64.6667L17.4883 60.2167L21.6667 57.0833ZM3.33333 93.3333V73.3333C3.3384 70.7219 4.21846 68.1875 5.83296 66.1349C7.44746 64.0824 9.70324 62.6301 12.24 62.01L6.96333 73.4717C6.72451 73.9961 6.62716 74.5738 6.68097 75.1475C6.73477 75.7212 6.93785 76.2708 7.27 76.7417L21.7317 96.6667H6.66667C5.78261 96.6667 4.93476 96.3155 4.30964 95.6904C3.68452 95.0652 3.33333 94.2174 3.33333 93.3333ZM53.3333 93.3333C53.3333 94.2174 52.9821 95.0652 52.357 95.6904C51.7319 96.3155 50.8841 96.6667 50 96.6667H34.935L49.4233 76.7017C49.7465 76.2326 49.942 75.6875 49.9905 75.12C50.039 74.5525 49.9389 73.9821 49.7 73.465L44.4317 62.02C45.5389 62.2863 46.5993 62.719 47.5767 63.3033C48.3134 64.5935 49.4594 65.6012 50.8333 66.1667C52.4456 68.2082 53.326 70.7319 53.3333 73.3333V93.3333ZM56.6667 63.3333H53.3333C52.4493 63.3333 51.6014 62.9821 50.9763 62.357C50.3512 61.7319 50 60.8841 50 60H60C60 60.8841 59.6488 61.7319 59.0237 62.357C58.3986 62.9821 57.5507 63.3333 56.6667 63.3333ZM91.6667 50.0267L95.4617 56.6667H87.8717L91.6667 50.0267ZM93.3333 63.3333H90C89.1159 63.3333 88.2681 62.9821 87.643 62.357C87.0179 61.7319 86.6667 60.8841 86.6667 60H96.6667C96.6667 60.8841 96.3155 61.7319 95.6904 62.357C95.0652 62.9821 94.2174 63.3333 93.3333 63.3333ZM71.6667 53.0967C72.7554 53.4122 73.9113 53.4122 75 53.0967V83.3333H71.6667V53.0967ZM73.3333 43.3333C73.9926 43.3333 74.6371 43.5288 75.1852 43.8951C75.7334 44.2614 76.1606 44.782 76.4129 45.3911C76.6652 46.0001 76.7312 46.6704 76.6026 47.317C76.474 47.9636 76.1565 48.5575 75.6904 49.0237C75.2242 49.4899 74.6302 49.8073 73.9836 49.936C73.337 50.0646 72.6668 49.9986 72.0577 49.7463C71.4486 49.494 70.928 49.0667 70.5618 48.5186C70.1955 47.9704 70 47.3259 70 46.6667C70 45.7826 70.3512 44.9348 70.9763 44.3096C71.6014 43.6845 72.4493 43.3333 73.3333 43.3333ZM63.3333 96.6667V95C63.3333 94.558 63.5089 94.134 63.8215 93.8215C64.134 93.5089 64.558 93.3333 65 93.3333H81.6667C82.1087 93.3333 82.5326 93.5089 82.8452 93.8215C83.1577 94.134 83.3333 94.558 83.3333 95V96.6667H63.3333ZM80 90H66.6667C66.6667 89.1159 67.0179 88.2681 67.643 87.643C68.2681 87.0179 69.1159 86.6667 70 86.6667H76.6667C77.5507 86.6667 78.3986 87.0179 79.0237 87.643C79.6488 88.2681 80 89.1159 80 90Z" fill="#6174AE"/>
</g>
<defs>
<clipPath id="clip0_35_49">
<rect width="100" height="100" fill="white"/>
</clipPath>
</defs>
</svg>
