<svg width="100" height="100" viewBox="0 0 100 100" fill="none" xmlns="http://www.w3.org/2000/svg">
<path d="M95.3125 76.5625C94.8981 76.5625 94.5007 76.7271 94.2076 77.0201C93.9146 77.3132 93.75 77.7106 93.75 78.125V93.75H26.5625V87.5C26.5625 87.0856 26.3979 86.6882 26.1049 86.3951C25.8118 86.1021 25.4144 85.9375 25 85.9375C24.5856 85.9375 24.1882 86.1021 23.8951 86.3951C23.6021 86.6882 23.4375 87.0856 23.4375 87.5V95.3125C23.4375 95.7269 23.6021 96.1243 23.8951 96.4174C24.1882 96.7104 24.5856 96.875 25 96.875H95.3125C95.7269 96.875 96.1243 96.7104 96.4174 96.4174C96.7104 96.1243 96.875 95.7269 96.875 95.3125V78.125C96.875 77.7106 96.7104 77.3132 96.4174 77.0201C96.1243 76.7271 95.7269 76.5625 95.3125 76.5625Z" fill="#6174AE"/>
<path d="M95.3125 3.125H25C24.5856 3.125 24.1882 3.28962 23.8951 3.58265C23.6021 3.87567 23.4375 4.2731 23.4375 4.6875V9.375C23.4375 9.7894 23.6021 10.1868 23.8951 10.4799C24.1882 10.7729 24.5856 10.9375 25 10.9375C25.4144 10.9375 25.8118 10.7729 26.1049 10.4799C26.3979 10.1868 26.5625 9.7894 26.5625 9.375V6.25H93.75V71.875C93.75 72.2894 93.9146 72.6868 94.2076 72.9799C94.5007 73.2729 94.8981 73.4375 95.3125 73.4375C95.7269 73.4375 96.1243 73.2729 96.4174 72.9799C96.7104 72.6868 96.875 72.2894 96.875 71.875V4.6875C96.875 4.2731 96.7104 3.87567 96.4174 3.58265C96.1243 3.28962 95.7269 3.125 95.3125 3.125Z" fill="#6174AE"/>
<path d="M25 82.8125C27.3112 82.8111 29.5865 82.2401 31.6245 81.15C33.6625 80.0599 35.4003 78.4842 36.6844 76.5625H51.5625C51.9769 76.5625 52.3743 76.3979 52.6673 76.1049C52.9604 75.8118 53.125 75.4144 53.125 75C53.125 74.5856 52.9604 74.1882 52.6673 73.8951C52.3743 73.6021 51.9769 73.4375 51.5625 73.4375H38.2422C38.6042 72.4273 38.8485 71.3787 38.9703 70.3125H39.0625C39.9691 70.3165 40.8572 70.0564 41.6184 69.5639C42.3796 69.0714 42.9809 68.3679 43.3488 67.5393C43.7167 66.7107 43.8353 65.7929 43.6901 64.898C43.5449 64.003 43.1422 63.1698 42.5312 62.5C43.1422 61.8302 43.5449 60.9969 43.6901 60.102C43.8353 59.2071 43.7167 58.2893 43.3488 57.4607C42.9809 56.6321 42.3796 55.9286 41.6184 55.4361C40.8572 54.9436 39.9691 54.6835 39.0625 54.6875V52.6703C41.468 50.6551 43.4116 48.1457 44.7609 45.3125H65.625V50C65.625 50.4144 65.7896 50.8118 66.0826 51.1049C66.3756 51.3979 66.7731 51.5625 67.1875 51.5625C67.6019 51.5625 67.9993 51.3979 68.2923 51.1049C68.5854 50.8118 68.75 50.4144 68.75 50V43.75C68.75 43.3356 68.5854 42.9382 68.2923 42.6451C67.9993 42.3521 67.6019 42.1875 67.1875 42.1875H45.9375C46.3922 40.661 46.6772 39.089 46.7875 37.5H60.9375C61.3519 37.5 61.7493 37.3354 62.0423 37.0424C62.3354 36.7493 62.5 36.3519 62.5 35.9375V29.6875C62.5 29.2731 62.3354 28.8757 62.0423 28.5826C61.7493 28.2896 61.3519 28.125 60.9375 28.125C60.5231 28.125 60.1256 28.2896 59.8326 28.5826C59.5396 28.8757 59.375 29.2731 59.375 29.6875V34.375H46.814C46.5248 30.2807 45.0797 26.3526 42.6469 23.0469C42.5271 22.8776 42.3748 22.7338 42.1989 22.624C42.023 22.5142 41.827 22.4404 41.6223 22.4071C41.4176 22.3738 41.2083 22.3816 41.0067 22.43C40.805 22.4784 40.615 22.5664 40.4478 22.689C40.2805 22.8116 40.1393 22.9662 40.0324 23.1439C39.9255 23.3217 39.8551 23.5189 39.8252 23.7241C39.7953 23.9293 39.8065 24.1384 39.8583 24.3392C39.91 24.54 40.0012 24.7285 40.1265 24.8938C41.9291 27.3501 43.1041 30.2097 43.5493 33.2237C43.9946 36.2377 43.6966 39.3149 42.6812 42.1875H37.5C37.0856 42.1875 36.6881 42.3521 36.3951 42.6451C36.1021 42.9382 35.9375 43.3356 35.9375 43.75C35.9375 44.1644 36.1021 44.5618 36.3951 44.8549C36.6881 45.1479 37.0856 45.3125 37.5 45.3125H41.2062C40.0057 47.3873 38.4213 49.2146 36.5375 50.6969C36.3507 50.8429 36.1997 51.0295 36.0957 51.2425C35.9918 51.4556 35.9377 51.6895 35.9375 51.9266V54.6875H31.25V47.7219C31.2457 46.6677 31.4507 45.6231 31.853 44.6487C32.2554 43.6743 32.847 42.7894 33.5937 42.0453C35.0229 40.616 36.0367 38.8251 36.5265 36.8641L37.4453 33.1922C37.5181 32.9022 37.5062 32.5975 37.411 32.3141C37.3158 32.0307 37.1413 31.7806 36.9082 31.5934C36.6751 31.4062 36.3932 31.2898 36.096 31.2581C35.7988 31.2263 35.4986 31.2804 35.2312 31.4141L30 34.0359L26.1094 30.1453C25.8163 29.8524 25.419 29.6878 25.0047 29.6878C24.5903 29.6878 24.193 29.8524 23.9 30.1453L20.0093 34.0359L14.7609 31.4141C14.4935 31.2804 14.1934 31.2263 13.8961 31.2581C13.5989 31.2898 13.317 31.4062 13.0839 31.5934C12.8508 31.7806 12.6764 32.0307 12.5812 32.3141C12.486 32.5975 12.4741 32.9022 12.5469 33.1922L13.4734 36.9C13.9726 38.8771 14.9986 40.6817 16.4422 42.1219C17.9278 43.6231 18.7577 45.652 18.75 47.7641V54.6875H14.0625V51.9266C14.0623 51.6895 14.0082 51.4556 13.9042 51.2425C13.8003 51.0295 13.6492 50.8429 13.4625 50.6969C9.58788 47.6711 7.05814 43.2433 6.41908 38.3689C5.78002 33.4945 7.08286 28.5642 10.0465 24.6419C13.0102 20.7195 17.3971 18.1195 22.2606 17.4028C27.1242 16.6861 32.0746 17.9102 36.0437 20.8109C36.3782 21.0558 36.7962 21.1579 37.2058 21.0946C37.6155 21.0313 37.9832 20.8079 38.2281 20.4734C38.473 20.139 38.575 19.721 38.5118 19.3114C38.4485 18.9017 38.225 18.534 37.8906 18.2891C33.3145 14.9331 27.6125 13.4887 21.9906 14.2613C16.3687 15.0339 11.2677 17.963 7.76659 22.4289C4.26548 26.8949 2.63878 32.5477 3.23055 38.1915C3.82232 43.8353 6.58615 49.0277 10.9375 52.6703V54.6875C9.69427 54.6875 8.50199 55.1814 7.62291 56.0604C6.74384 56.9395 6.24998 58.1318 6.24998 59.375C6.24998 60.6182 6.74384 61.8105 7.62291 62.6896C8.50199 63.5686 9.69427 64.0625 10.9375 64.0625H39.0625C39.4769 64.0625 39.8743 64.2271 40.1673 64.5201C40.4604 64.8132 40.625 65.2106 40.625 65.625C40.625 66.0394 40.4604 66.4368 40.1673 66.7299C39.8743 67.0229 39.4769 67.1875 39.0625 67.1875H10.9375C10.5231 67.1875 10.1256 67.3521 9.83262 67.6451C9.5396 67.9382 9.37498 68.3356 9.37498 68.75C9.37498 69.1644 9.5396 69.5618 9.83262 69.8549C10.1256 70.1479 10.5231 70.3125 10.9375 70.3125H11.0297C11.4172 73.7479 13.0553 76.9206 15.6317 79.2259C18.2082 81.5312 21.5428 82.8078 25 82.8125ZM18.5765 39.8313C17.569 38.8086 16.8536 37.5348 16.5047 36.1422L16.4031 35.7297L19.614 37.3438C19.9074 37.4902 20.2394 37.5406 20.563 37.4879C20.8866 37.4351 21.1854 37.282 21.4172 37.05L25 33.4594L28.5828 37.0422C28.8145 37.2741 29.1133 37.4273 29.4369 37.48C29.7606 37.5328 30.0925 37.4823 30.3859 37.3359L33.5937 35.7297L33.5 36.1063C33.1494 37.5202 32.4208 38.8122 31.3922 39.8438C30.3539 40.8758 29.5306 42.1035 28.9698 43.4557C28.409 44.8079 28.1219 46.258 28.125 47.7219V54.6875H21.875V47.7656C21.8764 46.2908 21.5857 44.8303 21.0196 43.4684C20.4534 42.1066 19.6231 40.8704 18.5765 39.8313ZM9.37498 59.375C9.37498 58.9606 9.5396 58.5632 9.83262 58.2701C10.1256 57.9771 10.5231 57.8125 10.9375 57.8125H39.0625C39.4769 57.8125 39.8743 57.9771 40.1673 58.2701C40.4604 58.5632 40.625 58.9606 40.625 59.375C40.625 59.7894 40.4604 60.1868 40.1673 60.4799C39.8743 60.7729 39.4769 60.9375 39.0625 60.9375H10.9375C10.5231 60.9375 10.1256 60.7729 9.83262 60.4799C9.5396 60.1868 9.37498 59.7894 9.37498 59.375ZM35.8265 70.3125C35.6673 71.3964 35.3449 72.4501 34.8703 73.4375H28.125C27.7106 73.4375 27.3131 73.6021 27.0201 73.8951C26.7271 74.1882 26.5625 74.5856 26.5625 75C26.5625 75.4144 26.7271 75.8118 27.0201 76.1049C27.3131 76.3979 27.7106 76.5625 28.125 76.5625H32.6344C31.1929 77.9767 29.3876 78.9637 27.419 79.4137C25.4505 79.8636 23.3957 79.759 21.4829 79.1115C19.5702 78.4639 17.8745 77.2988 16.5841 75.7455C15.2937 74.1922 14.4593 72.3115 14.1734 70.3125H35.8265Z" fill="#6174AE"/>
<path d="M62.9578 55.1453L56.7078 61.3953C56.4894 61.6138 56.3406 61.8922 56.2803 62.1953C56.2201 62.4983 56.251 62.8124 56.3693 63.0979C56.4875 63.3834 56.6877 63.6274 56.9446 63.7991C57.2015 63.9708 57.5035 64.0624 57.8125 64.0625H71.875V76.5625H59.375V68.75C59.375 68.3356 59.2104 67.9382 58.9174 67.6451C58.6243 67.3521 58.2269 67.1875 57.8125 67.1875C57.3981 67.1875 57.0007 67.3521 56.7076 67.6451C56.4146 67.9382 56.25 68.3356 56.25 68.75V78.125C56.25 78.5394 56.4146 78.9368 56.7076 79.2299C57.0007 79.5229 57.3981 79.6875 57.8125 79.6875H73.4375C73.6431 79.688 73.8468 79.6476 74.0367 79.5687C74.2266 79.4899 74.3989 79.3741 74.5438 79.2281L80.7938 72.9781C81.0858 72.6853 81.2499 72.2886 81.25 71.875V56.25H81.2359C81.2417 56.0444 81.2057 55.8398 81.1301 55.6486C81.0545 55.4574 80.9408 55.2835 80.7961 55.1374C80.6513 54.9913 80.4785 54.8761 80.2879 54.7988C80.0974 54.7215 79.8931 54.6836 79.6875 54.6875H64.0625C63.6481 54.6876 63.2508 54.8523 62.9578 55.1453ZM75 74.3531V63.1469L78.125 60.0219V71.2281L75 74.3531ZM75.9156 57.8125L72.7906 60.9375H61.5844L64.7094 57.8125H75.9156Z" fill="#6174AE"/>
<path d="M75 50C75 50.4144 75.1646 50.8118 75.4576 51.1049C75.7507 51.3979 76.1481 51.5625 76.5625 51.5625C76.9769 51.5625 77.3743 51.3979 77.6674 51.1049C77.9604 50.8118 78.125 50.4144 78.125 50V31.25C78.125 30.8356 77.9604 30.4382 77.6674 30.1451C77.3743 29.8521 76.9769 29.6875 76.5625 29.6875C76.1481 29.6875 75.7507 29.8521 75.4576 30.1451C75.1646 30.4382 75 30.8356 75 31.25V50Z" fill="#6174AE"/>
<path d="M75 18.75V25C75 25.4144 75.1646 25.8118 75.4576 26.1049C75.7507 26.3979 76.1481 26.5625 76.5625 26.5625H89.0625C89.4769 26.5625 89.8743 26.3979 90.1674 26.1049C90.4604 25.8118 90.625 25.4144 90.625 25V18.75C90.625 18.3356 90.4604 17.9382 90.1674 17.6451C89.8743 17.3521 89.4769 17.1875 89.0625 17.1875H76.5625C76.1481 17.1875 75.7507 17.3521 75.4576 17.6451C75.1646 17.9382 75 18.3356 75 18.75ZM78.125 20.3125H87.5V23.4375H78.125V20.3125Z" fill="#6174AE"/>
<path d="M89.0625 14.0625C89.4769 14.0625 89.8743 13.8979 90.1674 13.6049C90.4604 13.3118 90.625 12.9144 90.625 12.5C90.625 12.0856 90.4604 11.6882 90.1674 11.3951C89.8743 11.1021 89.4769 10.9375 89.0625 10.9375H81.25C80.8356 10.9375 80.4382 11.1021 80.1451 11.3951C79.8521 11.6882 79.6875 12.0856 79.6875 12.5C79.6875 12.9144 79.8521 13.3118 80.1451 13.6049C80.4382 13.8979 80.8356 14.0625 81.25 14.0625H89.0625Z" fill="#6174AE"/>
<path d="M89.0625 29.6875H85.9375C85.5231 29.6875 85.1257 29.8521 84.8326 30.1451C84.5396 30.4382 84.375 30.8356 84.375 31.25C84.375 31.6644 84.5396 32.0618 84.8326 32.3549C85.1257 32.6479 85.5231 32.8125 85.9375 32.8125H89.0625C89.4769 32.8125 89.8743 32.6479 90.1674 32.3549C90.4604 32.0618 90.625 31.6644 90.625 31.25C90.625 30.8356 90.4604 30.4382 90.1674 30.1451C89.8743 29.8521 89.4769 29.6875 89.0625 29.6875Z" fill="#6174AE"/>
<path d="M68.75 17.1875C68.75 15.6423 68.2918 14.1319 67.4334 12.8471C66.5749 11.5624 65.3548 10.561 63.9272 9.96969C62.4997 9.37839 60.9288 9.22367 59.4134 9.52512C57.8979 9.82657 56.5058 10.5706 55.4132 11.6632C54.3206 12.7558 53.5766 14.1479 53.2751 15.6634C52.9737 17.1788 53.1284 18.7497 53.7197 20.1772C54.311 21.6048 55.3124 22.8249 56.5971 23.6834C57.8819 24.5418 59.3923 25 60.9375 25C63.0087 24.9975 64.9944 24.1736 66.459 22.709C67.9236 21.2444 68.7475 19.2587 68.75 17.1875ZM65.3375 15.625H62.5V12.7875C63.1535 13.0209 63.747 13.3966 64.2377 13.8873C64.7284 14.378 65.1041 14.9715 65.3375 15.625ZM56.25 17.1875C56.254 16.2215 56.5564 15.2803 57.1158 14.4927C57.6751 13.7051 58.4642 13.1095 59.375 12.7875V17.1875C59.375 17.6019 59.5396 17.9993 59.8326 18.2924C60.1257 18.5854 60.5231 18.75 60.9375 18.75H65.3375C64.9706 19.7917 64.2469 20.6699 63.2945 21.2291C62.3421 21.7883 61.2225 21.9924 60.1341 21.8053C59.0457 21.6181 58.0586 21.0518 57.3477 20.2066C56.6368 19.3614 56.2479 18.2919 56.25 17.1875Z" fill="#6174AE"/>
<path d="M43.75 85.9375C43.3356 85.9375 42.9382 86.1021 42.6451 86.3951C42.3521 86.6882 42.1875 87.0856 42.1875 87.5C42.1875 87.9144 42.3521 88.3118 42.6451 88.6049C42.9382 88.8979 43.3356 89.0625 43.75 89.0625H81.25C81.6644 89.0625 82.0618 88.8979 82.3549 88.6049C82.6479 88.3118 82.8125 87.9144 82.8125 87.5C82.8125 87.0856 82.6479 86.6882 82.3549 86.3951C82.0618 86.1021 81.6644 85.9375 81.25 85.9375H43.75Z" fill="#6174AE"/>
</svg>
