<svg width="75" height="75" viewBox="0 0 75 75" fill="none" xmlns="http://www.w3.org/2000/svg">
<path d="M73.2082 28.2632L38.052 9.51323C37.7062 9.32925 37.2949 9.32925 36.9492 9.51323L1.79297 28.2632C1.40977 28.4671 1.17188 28.8644 1.17188 29.2968C1.17188 29.7292 1.40977 30.1265 1.7918 30.3304L11.7188 35.625V50.3906H14.0625V36.8753L17.5781 38.7503V45.8695C15.5613 46.3933 14.0625 48.2121 14.0625 50.3906C14.0625 51.4617 14.4375 52.4378 15.0445 53.2289C14.4047 55.4167 14.0625 57.6726 14.0625 59.9554V63.2812C14.0625 63.7253 14.3133 64.1308 14.7105 64.33L16.0055 64.9781C16.8539 65.4011 17.802 65.625 18.75 65.625C19.698 65.625 20.6461 65.4011 21.4945 64.9769L22.7895 64.3289C23.1867 64.1308 23.4375 63.7253 23.4375 63.2812V59.9554C23.4375 57.6726 23.0953 55.4167 22.4555 53.2289C23.0625 52.4378 23.4375 51.4617 23.4375 50.3906C23.4375 48.2121 21.9387 46.3933 19.9219 45.8695V40.0007L36.948 49.0816C37.1215 49.173 37.3102 49.2187 37.5 49.2187C37.6898 49.2187 37.8785 49.173 38.052 49.0816L60.9375 36.8753V49.8117C54.4195 54.723 46.3687 57.4218 38.202 57.4218H36.7992C32.7762 57.4218 28.7988 56.7832 24.9762 55.5234L24.2437 57.7499C28.3008 59.0871 32.5266 59.7656 36.798 59.7656H38.2008C47.0766 59.7656 55.8223 56.7644 62.8289 51.3152C63.1137 51.0937 63.2812 50.7527 63.2812 50.3906V35.625L73.2082 30.3304C73.5902 30.1265 73.8281 29.7292 73.8281 29.2968C73.8281 28.8644 73.5902 28.4671 73.2082 28.2632ZM21.0938 62.557L20.4457 62.8804C19.3969 63.4042 18.102 63.4042 17.0531 62.8804L16.4062 62.557V59.9554C16.4062 58.1941 16.6207 56.4492 17.0437 54.7453C17.5734 54.9539 18.1465 55.0781 18.75 55.0781C19.3535 55.0781 19.9266 54.9539 20.4562 54.7453C20.8793 56.4492 21.0938 58.1941 21.0938 59.9554V62.557ZM21.0938 50.3906C21.0938 51.6832 20.0426 52.7343 18.75 52.7343C17.4574 52.7343 16.4062 51.6832 16.4062 50.3906C16.4062 49.098 17.4574 48.0468 18.75 48.0468C20.0426 48.0468 21.0938 49.098 21.0938 50.3906ZM37.5 46.7179L20.7281 37.773L35.2465 30.0304C35.9133 30.3023 36.6727 30.4687 37.5 30.4687C40.1285 30.4687 42.1875 28.9242 42.1875 26.9531C42.1875 24.982 40.1285 23.4375 37.5 23.4375C34.8715 23.4375 32.8125 24.982 32.8125 26.9531C32.8125 27.4886 32.9754 27.9878 33.2496 28.439L18.2379 36.4453L4.83398 29.2968L37.5 11.8746L70.166 29.2968L37.5 46.7179ZM35.1562 26.9531C35.1562 26.475 36.0691 25.7812 37.5 25.7812C38.9309 25.7812 39.8438 26.475 39.8438 26.9531C39.8438 27.4312 38.9309 28.125 37.5 28.125C36.0691 28.125 35.1562 27.4312 35.1562 26.9531Z" fill="#6174AE"/>
</svg>
