<svg width="100" height="100" viewBox="0 0 100 100" fill="none" xmlns="http://www.w3.org/2000/svg">
<path d="M44.2296 61.3953L47.1234 62.5984C48.3734 63.1141 48.939 63.5547 48.939 64.4625C48.939 65.7875 47.8843 66.4 46.1421 66.4C44.4721 66.3629 42.8536 65.8149 41.5046 64.8297V68.1109C42.6674 68.8561 44.0036 69.2868 45.3827 69.3609V71.9125H48.3749V69.1156C49.5146 68.8969 50.5378 68.2762 51.2585 67.3666C51.9791 66.457 52.3492 65.3189 52.3015 64.1594C52.3043 63.159 51.976 62.1858 51.3677 61.3916C50.7595 60.5974 49.9055 60.0268 48.939 59.7687L46.2155 58.6172C45.0874 58.1484 44.5234 57.7328 44.5234 56.825C44.5234 55.5984 45.578 54.9844 47.5171 54.9844C48.781 55.0003 50.0113 55.3937 51.0499 56.1141L51.8093 53.0953C50.7769 52.4428 49.5919 52.0712 48.3718 52.0172V49.6875H45.3827V52.2391C44.2216 52.4156 43.1606 52.998 42.3882 53.8828C41.6158 54.7676 41.182 55.8975 41.164 57.0719C41.1186 58.0314 41.3959 58.9785 41.9515 59.7621C42.5071 60.5456 43.3091 61.1206 44.2296 61.3953Z" fill="#6174AE"/>
<path d="M46.6187 77.4141C49.9092 77.4144 53.1259 76.4389 55.8619 74.6109C58.598 72.783 60.7305 70.1848 61.9898 67.1448C63.249 64.1048 63.5785 60.7597 62.9366 57.5324C62.2946 54.3052 60.71 51.3408 58.3831 49.0142C56.0563 46.6876 53.0918 45.1033 49.8645 44.4616C46.6372 43.8199 43.2921 44.1497 40.2522 45.4093C37.2124 46.6688 34.6143 48.8016 32.7866 51.5378C30.959 54.274 29.9838 57.4908 29.9844 60.7813C29.9902 65.191 31.7446 69.4185 34.863 72.5366C37.9813 75.6546 42.209 77.4087 46.6187 77.4141ZM46.6187 47.2688C49.291 47.2684 51.9032 48.0605 54.1253 49.5449C56.3473 51.0292 58.0793 53.1391 59.1022 55.6078C60.1251 58.0765 60.393 60.7931 59.8719 63.414C59.3509 66.0349 58.0644 68.4425 56.1751 70.3323C54.2858 72.222 51.8785 73.5091 49.2577 74.0307C46.6369 74.5523 43.9203 74.2851 41.4513 73.2628C38.9824 72.2404 36.8721 70.5089 35.3872 68.2873C33.9024 66.0656 33.1097 63.4535 33.1094 60.7813C33.1127 57.1991 34.537 53.7645 37.0696 51.2312C39.6023 48.698 43.0366 47.2729 46.6187 47.2688Z" fill="#6174AE"/>
<path d="M8.69839 89.2875H84.539C86.1458 89.2854 87.6863 88.6462 88.8225 87.51C89.9587 86.3738 90.5979 84.8334 90.6 83.2266V57.7203C95.9703 50.5504 98.8755 41.8347 98.8812 32.8766V28.1891C98.8787 27.8631 98.7743 27.5462 98.5826 27.2825C98.391 27.0189 98.1217 26.8217 97.8124 26.7187L79.2593 20.4953C78.9366 20.3859 78.5868 20.3859 78.264 20.4953L67.8843 23.975C67.5426 22.0927 66.552 20.3897 65.0847 19.1621C63.6173 17.9346 61.7662 17.2602 59.8531 17.2562H33.3859C31.2171 17.2583 29.1378 18.1208 27.6043 19.6543C26.0707 21.1878 25.2083 23.2672 25.2062 25.4359V32.7797H22.6906V30.4687C22.6906 30.0543 22.526 29.6569 22.2329 29.3639C21.9399 29.0709 21.5425 28.9062 21.1281 28.9062H12.3656C11.9512 28.9062 11.5537 29.0709 11.2607 29.3639C10.9677 29.6569 10.8031 30.0543 10.8031 30.4687V32.7891H8.69839C7.09156 32.7911 5.55114 33.4304 4.41494 34.5666C3.27874 35.7028 2.63952 37.2432 2.63745 38.85V83.225C2.63952 84.832 3.27869 86.3726 4.41485 87.509C5.551 88.6454 7.09142 89.285 8.69839 89.2875ZM84.539 86.1625H8.69839C7.91998 86.1617 7.1737 85.8521 6.62328 85.3017C6.07287 84.7512 5.76328 84.005 5.76245 83.2266V81.2672H87.4812V83.2266C87.4808 83.6125 87.4044 83.9946 87.2563 84.3511C87.1082 84.7075 86.8914 85.0312 86.6182 85.3039C86.345 85.5765 86.0207 85.7926 85.664 85.94C85.3072 86.0873 84.925 86.1629 84.539 86.1625ZM78.7578 23.625L95.7562 29.325V32.8812C95.7533 39.0329 94.2717 45.0936 91.4363 50.5529C88.6009 56.0121 84.4948 60.7097 79.464 64.25L78.7609 64.7469L78.0562 64.25C73.0253 60.7097 68.919 56.0121 66.0834 50.5529C63.2477 45.0937 61.7658 39.033 61.7625 32.8812V29.325L78.7578 23.625ZM28.3312 25.4391C28.3324 24.0989 28.8654 22.8139 29.8131 21.8662C30.7607 20.9186 32.0457 20.3856 33.3859 20.3844H59.8531C61.1121 20.3882 62.3242 20.8627 63.2512 21.7148C64.1781 22.5669 64.7529 23.7348 64.8625 24.9891L61.2859 26.1875C61.1022 25.5248 60.7069 24.9403 60.1602 24.5231C59.6135 24.1059 58.9455 23.8788 58.2578 23.8766H34.9765C34.1406 23.8786 33.3396 24.2117 32.7486 24.8029C32.1577 25.3941 31.825 26.1953 31.8234 27.0312V32.7859H28.3312V25.4391ZM58.2906 32.7828H34.9562L34.9812 27.0016L58.2906 27.0344V32.7828ZM58.7593 35.9078C58.8751 37.5113 59.0838 39.1066 59.3843 40.6859H22.6906V35.9141L58.7593 35.9078ZM13.9281 32.0312H19.5656V45.4016H13.9281V32.0312ZM21.1281 48.5266C21.5425 48.5266 21.9399 48.3619 22.2329 48.0689C22.526 47.7759 22.6906 47.3785 22.6906 46.9641V43.8172H60.1281C62.6696 53.1231 68.3742 61.2527 76.2609 66.8078L77.864 67.9344C78.127 68.1189 78.4404 68.218 78.7617 68.218C79.0829 68.218 79.3964 68.1189 79.6593 67.9344L81.2625 66.8078C83.5073 65.2242 85.5884 63.4204 87.475 61.4234V78.1422H5.76245V43.8172H10.8031V46.9641C10.8031 47.3785 10.9677 47.7759 11.2607 48.0689C11.5537 48.3619 11.9512 48.5266 12.3656 48.5266H21.1281ZM8.69839 35.9141H10.8031V40.6922H5.76245V38.85C5.76328 38.0716 6.07287 37.3253 6.62328 36.7749C7.1737 36.2245 7.91998 35.9149 8.69839 35.9141Z" fill="#6174AE"/>
<path d="M73.3343 51.8922C74.2543 52.8115 75.5017 53.3279 76.8023 53.3279C78.1029 53.3279 79.3503 52.8115 80.2703 51.8922L92.839 39.3234C93.3018 38.8697 93.6701 38.3286 93.9226 37.7317C94.1751 37.1347 94.3067 36.4936 94.3099 35.8454C94.3131 35.1973 94.1878 34.5549 93.9412 33.9555C93.6947 33.356 93.3317 32.8114 92.8734 32.3531C92.4151 31.8948 91.8705 31.5318 91.271 31.2853C90.6716 31.0387 90.0292 30.9134 89.3811 30.9166C88.7329 30.9198 88.0918 31.0514 87.4948 31.3039C86.8979 31.5564 86.3569 31.9247 85.9031 32.3875L76.8015 41.4875L73.2593 37.9437C72.325 37.0513 71.0826 36.5533 69.7906 36.5533C68.4985 36.5533 67.2561 37.0513 66.3218 37.9437C65.404 38.8646 64.8887 40.1116 64.8887 41.4117C64.8887 42.7118 65.404 43.9589 66.3218 44.8797L73.3343 51.8922ZM68.5312 40.1562C68.8652 39.8223 69.3182 39.6347 69.7906 39.6347C70.2629 39.6347 70.7159 39.8223 71.05 40.1562L75.6968 44.8047C75.9898 45.0976 76.3872 45.2622 76.8015 45.2622C77.2158 45.2622 77.6132 45.0976 77.9062 44.8047L88.1124 34.6C88.3609 34.3518 88.6772 34.1827 89.0215 34.1138C89.3658 34.045 89.7228 34.0796 90.0476 34.2132C90.3723 34.3469 90.6502 34.5736 90.8464 34.8648C91.0425 35.1561 91.1482 35.4989 91.1499 35.85C91.1498 36.0824 91.1038 36.3124 91.0145 36.5269C90.9252 36.7414 90.7944 36.9362 90.6296 37.1L78.0609 49.6875C77.7217 50.011 77.271 50.1915 76.8023 50.1915C76.3336 50.1915 75.8829 50.011 75.5437 49.6875L68.5312 42.6703C68.1998 42.3359 68.0139 41.8841 68.0139 41.4133C68.0139 40.9425 68.1998 40.4907 68.5312 40.1562Z" fill="#6174AE"/>
</svg>
