<svg width="100" height="100" viewBox="0 0 100 100" fill="none" xmlns="http://www.w3.org/2000/svg">
<g clip-path="url(#clip0_40_516)">
<path d="M12.8785 5.72979C8.97124 12.4042 4.99686 19.21 1.06915 25.9302C-2.05793 31.6756 2.22853 37.5035 6.79165 38.1971C0.71353 46.219 -1.58168 56.7792 1.14395 66.9529C5.04645 81.5192 18.2619 91.6752 33.3398 91.6752C34.2604 91.6719 35.0033 90.9194 34.9998 89.9986V83.5656L36.4158 78.5194L41.79 75.3942C42.371 75.0552 42.6931 74.4006 42.6037 73.734L41.8029 67.656L48.0037 64.7392C48.7008 64.4112 49.0808 63.6479 48.925 62.8933L47.7337 57.014L51.2752 52.7298C51.6971 52.2217 51.7814 51.5142 51.4869 50.9229L48.6939 45.3235C51.4294 42.5879 54.1646 39.8521 56.9 37.1165C57.555 36.4648 57.555 35.4046 56.9 34.7529C51.8087 29.6608 45.3835 26.5319 38.6392 25.4454C34.7996 18.93 30.9381 12.205 27.1325 5.77562C26.1435 3.94271 23.6812 1.66729 19.9596 1.66729C16.5844 1.64229 14.1371 3.60416 12.8785 5.72979ZM19.7435 5.00375H19.7567C21.8994 4.92333 23.4664 6.10104 24.2356 7.42583C28.1925 14.144 32.1085 20.8862 36.045 27.6165C37.8812 30.7665 35.36 35.0021 31.8004 35H8.19145C4.63186 35.0021 2.1104 30.7669 3.94686 27.6165C8.05999 20.576 12.3604 13.1796 15.7435 7.42812C16.8017 5.68271 18.4667 5.05291 19.7439 5.00375H19.7435ZM19.9908 11.6581C17.2494 11.6581 14.9944 13.9265 14.9944 16.6683C14.9944 18.8908 15.9571 21.0517 16.84 22.8179C17.7229 24.5842 18.6139 25.9204 18.6139 25.9204C19.2744 26.9033 20.7204 26.9033 21.3808 25.9204C21.3808 25.9204 22.2685 24.5842 23.1517 22.8179C24.0346 21.0517 24.9973 18.8906 24.9973 16.6683C24.9971 13.9262 22.7323 11.6581 19.9908 11.6581ZM19.9908 14.9917C20.9308 14.9917 21.6639 15.7279 21.6639 16.6683C21.6469 17.9621 20.7285 20.3675 19.9908 21.6362C19.1523 20.2173 18.2831 17.5662 18.3308 16.6683C18.3308 15.7279 19.0508 14.9917 19.9908 14.9917ZM59.9858 25.761L60.3927 29.0685C60.5108 29.9821 61.3477 30.6267 62.261 30.5075C63.1702 30.3908 63.8144 29.5617 63.7031 28.6519L63.2962 25.341C63.1344 24.2431 62.1215 23.791 61.4246 23.9021C60.5154 24.0204 59.8725 24.851 59.9858 25.761ZM69.0675 27.9875L67.0233 30.6081C66.4483 31.3342 66.5756 32.39 67.3064 32.9585C68.0337 33.5217 69.0798 33.3892 69.6435 32.6623L71.6975 30.0285C72.2612 29.3021 72.1302 28.256 71.4046 27.691C70.54 27.0381 69.5104 27.3817 69.0675 27.9875ZM19.9973 28.3294C19.0769 28.3294 18.3306 29.0756 18.3306 29.9962C18.3306 30.9169 19.0769 31.6631 19.9973 31.6631C20.9177 31.6631 21.6639 30.9169 21.6639 29.9962C21.6639 29.0756 20.9177 28.3294 19.9973 28.3294ZM39.9542 29.0946C44.7785 30.2381 49.2962 32.6794 53.1698 36.1329L50.9629 38.35C47.6437 35.4185 43.7346 33.4181 39.6027 32.4185C39.976 31.2725 40.0606 30.0725 39.9542 29.0946ZM75.8315 34.9642C74.6875 35.0831 73.5142 35.2479 72.3615 35.3942C71.4523 35.5125 70.8094 36.3431 70.9227 37.2531C71.0346 38.1677 71.8671 38.8181 72.7814 38.705L76.0919 38.285C77.001 38.1667 77.644 37.336 77.5306 36.426C77.4079 35.44 76.5608 34.9396 75.8315 34.9642ZM37.9067 35.4654C41.7604 36.2463 45.5275 38.0498 48.6192 40.6938L45.4812 43.8223C44.9777 44.3298 44.8556 45.1035 45.1752 45.7431L48.0169 51.4371L44.6577 55.5C44.3352 55.8858 44.2027 56.3965 44.2996 56.8902L45.3964 62.2781L41.6694 64.036V61.6625C41.6694 58.921 39.4008 56.6685 36.6598 56.6685H35V49.9979H36.66C37.6121 49.9979 38.3331 50.706 38.3331 51.6581C38.3277 52.58 39.0714 53.331 39.9931 53.3348C40.9212 53.3402 41.675 52.5865 41.6696 51.6581C41.6696 48.9167 39.401 46.6642 36.66 46.6642H35V45.004C35.0035 44.0833 34.2604 43.3342 33.34 43.3306C32.4146 43.3271 31.6633 44.0783 31.6669 45.004V46.6642H30.0069C27.2658 46.6642 24.9973 48.9167 24.9973 51.6581V54.995C24.9973 57.7365 27.2658 60.0019 30.0069 60.0019H31.6669V66.6723H30.0069C29.0548 66.6723 28.3337 65.9479 28.3337 64.9956C28.3302 64.079 27.5871 63.3371 26.6704 63.3354C25.75 63.3319 25.0008 64.0752 24.9973 64.9956C24.9973 67.7369 27.2658 70.0058 30.0069 70.0058H31.6669V71.6667C31.6704 72.5873 32.4196 73.3306 33.34 73.3269C34.2554 73.3233 34.9964 72.5821 35 71.6667V70.0065H36.66C37.3823 70.0065 38.0675 69.8392 38.6912 69.5573L39.1469 73.07L34.1504 75.974C33.776 76.1942 33.5035 76.5513 33.3887 76.9702L32.09 81.6256C22.0646 81.0785 13.4258 74.1656 10.8019 64.3715C8.1004 54.2881 12.4114 43.6863 21.3352 38.334H31.8002C33.6571 38.3644 36.075 37.6127 37.9067 35.4654ZM10.9937 38.3335H15.7233C8.23895 44.9281 4.91853 55.3119 7.57582 65.2304C10.5512 76.3365 20.3085 84.2175 31.66 84.9327L31.6435 88.2923C18.7921 87.554 7.71853 78.6554 4.3529 66.0931C1.6777 56.1065 4.37978 45.7258 10.9937 38.3335ZM88.331 41.6704C87.4106 41.6669 86.6615 42.4102 86.6579 43.3306V48.3115C86.6598 49.2333 87.4094 49.9785 88.331 49.975C89.2477 49.9715 89.9894 49.2281 89.991 48.3115V43.3306C89.9875 42.4152 89.2462 41.674 88.331 41.6704ZM38.4081 95.0085H8.3279C7.41249 95.0121 6.67145 95.7533 6.66791 96.6688C6.67145 97.5842 7.4127 98.3254 8.3279 98.329H68.3285C69.2489 98.3325 69.9981 97.5892 70.0017 96.6688C69.9981 95.7481 69.2489 95.0048 68.3285 95.0085H56.975C63.5714 92.2302 69.2521 87.3558 72.9671 80.8829C79.676 69.1933 78.675 54.6056 70.4444 43.9331C69.7208 43.0548 68.6494 43.1785 68.1071 43.6237C64.696 46.3654 61.1665 48.9169 57.6356 51.499C57.1498 51.8573 56.896 52.4529 56.9717 53.0519L57.7106 58.8335L53.6256 63.2025C53.3198 63.5321 53.1602 63.9708 53.1829 64.42L53.466 70.3873L48.9512 72.7508C48.466 73.0025 48.1356 73.475 48.0658 74.0173L47.3758 79.4671L42.0246 81.5604C41.5425 81.7471 41.1748 82.1452 41.0285 82.6413L39.2577 88.6086C39.2312 88.6965 39.2206 88.7844 39.2025 88.8706L38.4081 95.0085ZM81.6646 45.0171C80.7389 45.0135 79.9879 45.7648 79.9915 46.6904V51.6583C79.986 52.5852 80.7377 53.3385 81.6646 53.335C82.5862 53.3315 83.33 52.5802 83.3246 51.6583V46.6904C83.3283 45.7698 82.585 45.0206 81.6646 45.0171ZM93.3275 46.6904V51.6583C93.3221 52.5852 94.0737 53.3385 95.0006 53.335C95.9223 53.3315 96.666 52.5802 96.6606 51.6583V46.6904C96.6642 45.7698 95.921 45.0206 95.0006 45.0171C94.075 45.0135 93.3237 45.7648 93.3275 46.6904ZM68.7875 47.3154C75.2894 56.7258 75.8127 69.2223 70.0733 79.2225C64.3314 89.2271 53.3437 95.0479 41.8779 94.2075L42.301 90.8902C52.4037 91.5565 62.0954 86.4363 67.1827 77.5719C72.2708 68.7067 71.8064 57.7556 66.1346 49.3662L68.7875 47.3154ZM30.0067 49.9979H31.6667V56.6683H30.0067C29.0546 56.6683 28.3335 55.9473 28.3335 54.995V51.6583C28.3335 50.706 29.0546 49.9979 30.0067 49.9979ZM63.4687 51.3621C68.3519 58.7804 68.7002 68.2317 64.2923 75.9119C59.9664 83.4492 51.816 87.9567 43.0431 87.6023L43.9935 84.376L49.5173 82.211C50.0848 81.989 50.485 81.4744 50.5621 80.8698L51.2652 75.2965L55.9525 72.8483C56.5229 72.5467 56.8675 71.9433 56.8379 71.2988L56.5417 64.9602L60.6756 60.5327C61.0102 60.1713 61.1669 59.6802 61.1052 59.1915L60.4054 53.605L63.4687 51.3621ZM35 60.0021H36.66C37.6121 60.0021 38.3331 60.7102 38.3331 61.6623V64.9958C38.3331 65.9481 37.6121 66.6725 36.66 66.6725H35V60.0021ZM83.3246 60.0021C82.3535 60.0029 81.5887 60.8308 81.6646 61.7992L83.201 81.6708H78.3315C76.9569 81.671 76.1733 83.2419 77.0002 84.3404L86.99 97.6652C87.6567 98.5563 88.9925 98.5563 89.6592 97.6652L99.6621 84.3404C100.492 83.2383 99.6998 81.6631 98.321 81.6708H93.4612L94.9879 61.7992C95.0637 60.8308 94.299 60.0031 93.3279 60.0021H83.3246ZM85.1215 63.3358H91.5306L90.004 83.2073C89.9281 84.1769 90.6948 85.0052 91.6673 85.0044H94.9875L88.3179 93.8885L81.6646 85.0044H84.9977C85.9687 85.0035 86.7335 84.1756 86.6577 83.2073L85.1215 63.3358Z" fill="#6174AE"/>
</g>
<defs>
<clipPath id="clip0_40_516">
<rect width="100" height="100" fill="white"/>
</clipPath>
</defs>
</svg>
