<svg width="100" height="100" viewBox="0 0 100 100" fill="none" xmlns="http://www.w3.org/2000/svg">
<g clip-path="url(#clip0_40_462)">
<path d="M42.0318 20.0953C45.5879 20.0953 48.4809 17.2023 48.4809 13.6465C48.4809 10.0906 45.5879 7.19765 42.0318 7.19765C38.476 7.19765 35.583 10.0906 35.583 13.6465C35.583 17.2023 38.476 20.0953 42.0318 20.0953ZM42.0318 10.1273C43.9725 10.1273 45.5512 11.7061 45.5512 13.6465C45.5512 15.5869 43.9725 17.1656 42.0318 17.1656C40.0914 17.1656 38.5127 15.5869 38.5127 13.6465C38.5127 11.7061 40.0914 10.1273 42.0318 10.1273Z" fill="#6174AE"/>
<path d="M18.8359 45.5824C19.5922 45.8703 20.4383 45.4908 20.7262 44.735L21.2777 43.2867H25.1322L25.6771 44.7309C25.8986 45.3174 26.4559 45.6789 27.048 45.6789C27.2197 45.6789 27.3947 45.6484 27.5648 45.5842C28.3217 45.2986 28.7039 44.4533 28.4182 43.6965L24.7937 34.0926C24.7887 34.0791 24.7832 34.0656 24.7777 34.0521C24.5166 33.4178 23.9049 33.0082 23.2191 33.0082C23.2185 33.0082 23.218 33.0082 23.2174 33.0082C22.5307 33.009 21.9191 33.4201 21.659 34.0555C21.6545 34.0666 21.65 34.0777 21.6459 34.0889L17.9883 43.6924C17.7006 44.4482 18.0801 45.2945 18.8359 45.5824ZM24.0267 40.3568H22.3937L23.2141 38.2031L24.0267 40.3568Z" fill="#6174AE"/>
<path d="M54.1631 45.6783C54.9721 45.6783 55.6279 45.0225 55.6279 44.2135V34.4729C55.6279 33.6639 54.9721 33.008 54.1631 33.008C53.3541 33.008 52.6982 33.6639 52.6982 34.4729V44.2135C52.6982 45.0225 53.3541 45.6783 54.1631 45.6783Z" fill="#6174AE"/>
<path d="M41.4016 44.2188C41.4029 44.6074 41.5586 44.9795 41.8344 45.2531C42.1088 45.5256 42.4799 45.6783 42.8664 45.6783H42.8719C42.9553 45.6779 44.924 45.6703 45.7117 45.6566C48.7781 45.6031 51.0039 42.9479 51.0039 39.3432C51.0039 35.5539 48.8346 33.008 45.6055 33.008H42.8467C42.4576 33.008 42.0848 33.1627 41.81 33.4381C41.5352 33.7135 41.3811 34.0867 41.3818 34.4756C41.3818 34.4758 41.4016 44.2188 41.4016 44.2188ZM45.6055 35.9377C47.8961 35.9377 48.0742 38.5443 48.0742 39.3432C48.0742 41.0066 47.3279 42.6982 45.6607 42.7273C45.349 42.7328 44.8318 42.7373 44.3264 42.7408C44.3229 41.6094 44.3162 37.1166 44.3143 35.9377H45.6055Z" fill="#6174AE"/>
<path d="M31.944 44.9344C32.7145 45.4268 33.5835 45.677 34.5261 45.6783H34.5337C35.3435 45.6783 36.1048 45.5018 36.796 45.1535C38.4997 44.2957 39.4378 42.8803 39.4378 41.1684V34.4729C39.4378 33.6639 38.7819 33.008 37.973 33.008C37.164 33.008 36.5081 33.6639 36.5081 34.4729V41.1684C36.5081 41.5887 36.3858 42.0799 35.4782 42.5369C35.1956 42.6793 34.8866 42.7484 34.5339 42.7484C34.5327 42.7484 34.5315 42.7484 34.5302 42.7484C34.1487 42.7479 33.8187 42.6553 33.5214 42.4654C32.8118 42.0121 32.6694 41.6357 32.6694 41.1754V34.4729C32.6694 33.6639 32.0136 33.008 31.2046 33.008C30.3956 33.008 29.7397 33.6639 29.7397 34.4729V41.1754C29.7397 42.7352 30.4813 44 31.944 44.9344Z" fill="#6174AE"/>
<path d="M59.3271 35.9377H60.541V44.2135C60.541 45.0225 61.1969 45.6783 62.0059 45.6783C62.8148 45.6783 63.4707 45.0225 63.4707 44.2135V35.9377H64.7064C65.5154 35.9377 66.1713 35.2818 66.1713 34.4729C66.1713 33.6639 65.5154 33.008 64.7064 33.008H59.3271C58.5182 33.008 57.8623 33.6639 57.8623 34.4729C57.8623 35.2818 58.5182 35.9377 59.3271 35.9377Z" fill="#6174AE"/>
<path d="M70.9995 49.7418H22.772C21.963 49.7418 21.3071 50.3977 21.3071 51.2066C21.3071 52.0156 21.963 52.6715 22.772 52.6715H70.9995C71.8085 52.6715 72.4644 52.0156 72.4644 51.2066C72.4644 50.3977 71.8085 49.7418 70.9995 49.7418Z" fill="#6174AE"/>
<path d="M70.9994 56.7348H13.0645C12.2555 56.7348 11.5996 57.3906 11.5996 58.1996C11.5996 59.0086 12.2555 59.6645 13.0645 59.6645H70.9994C71.8084 59.6645 72.4643 59.0086 72.4643 58.1996C72.4643 57.3906 71.8084 56.7348 70.9994 56.7348Z" fill="#6174AE"/>
<path d="M70.9994 63.7279H13.0645C12.2555 63.7279 11.5996 64.3838 11.5996 65.1928C11.5996 66.0018 12.2555 66.6576 13.0645 66.6576H70.9994C71.8084 66.6576 72.4643 66.0018 72.4643 65.1928C72.4643 64.3838 71.8084 63.7279 70.9994 63.7279Z" fill="#6174AE"/>
<path d="M70.9994 70.7211H13.0645C12.2555 70.7211 11.5996 71.377 11.5996 72.1859C11.5996 72.9949 12.2555 73.6508 13.0645 73.6508H70.9994C71.8084 73.6508 72.4643 72.9949 72.4643 72.1859C72.4643 71.377 71.8084 70.7211 70.9994 70.7211Z" fill="#6174AE"/>
<path d="M70.9994 77.7141H13.0645C12.2555 77.7141 11.5996 78.3699 11.5996 79.1789C11.5996 79.9879 12.2555 80.6438 13.0645 80.6438H70.9994C71.8084 80.6438 72.4643 79.9879 72.4643 79.1789C72.4643 78.3699 71.8084 77.7141 70.9994 77.7141Z" fill="#6174AE"/>
<path d="M54.2074 84.7072H13.0645C12.2555 84.7072 11.5996 85.3631 11.5996 86.1721C11.5996 86.981 12.2555 87.6369 13.0645 87.6369H54.2074C55.0164 87.6369 55.6723 86.981 55.6723 86.1721C55.6723 85.3631 55.0164 84.7072 54.2074 84.7072Z" fill="#6174AE"/>
<path d="M91.7258 30.4439C91.0107 30.4439 90.3135 30.5641 89.6574 30.7945L89.0197 23.326C88.7867 20.5938 86.5428 18.5334 83.8006 18.5334C82.7115 18.5334 81.7018 18.8594 80.8647 19.4223C78.5979 14.0367 73.2469 10.3555 67.2316 10.3555H64.3578C62.5334 8.63672 60.1629 7.69141 57.6461 7.69141H54.3104C52.0361 2.98731 47.3195 0 42.0311 0C36.7436 0 32.0277 2.98731 29.7535 7.69141H26.4176C23.8252 7.69141 21.4664 8.70547 19.7119 10.3555H16.833C8.67832 10.3555 2.04395 16.9889 2.04395 25.1426V85.2109C2.04395 93.3656 8.67832 100 16.833 100H67.2314C72.6127 100 77.4686 97.1272 80.0754 92.5436C80.7631 92.958 81.5246 93.2617 82.3355 93.4289V95.141C82.3355 95.95 82.9914 96.6059 83.8004 96.6059C84.6094 96.6059 85.2652 95.95 85.2652 95.141V93.4289C88.5574 92.7498 91.04 89.8285 91.04 86.3383L91.0387 59.3232C91.265 59.3478 91.4939 59.3615 91.7256 59.3615C95.1605 59.3615 97.9553 56.567 97.9553 53.1318V36.6732C97.9553 33.2385 95.1607 30.4439 91.7258 30.4439ZM78.6727 43.8465C77.8725 43.8465 77.2213 43.1955 77.2213 42.3951C77.2213 41.5947 77.8723 40.9438 78.6727 40.9438H88.9287C89.7289 40.9438 90.3801 41.5947 90.3801 42.3951C90.3801 43.1955 89.7291 43.8465 88.9287 43.8465H78.6727ZM83.8008 21.4631C85.0094 21.4631 85.998 22.3711 86.1008 23.5752L87.3336 38.0141H80.268L81.5008 23.575C81.6033 22.3711 82.5922 21.4631 83.8008 21.4631ZM67.2318 97.0703H16.8332C10.2939 97.0703 4.97383 91.7502 4.97383 85.2109V25.1426C4.97383 18.6043 10.2939 13.2852 16.8332 13.2852H17.5693C16.9607 14.5607 16.6189 15.9871 16.6189 17.4922C16.6189 20.1127 17.6387 22.574 19.4895 24.4225C20.4879 25.4209 21.7111 26.2047 23.027 26.6891C23.7867 26.9686 24.6283 26.5795 24.9076 25.8205C25.1871 25.0613 24.7982 24.2193 24.0391 23.9398C23.1184 23.6008 22.2613 23.0514 21.5602 22.3502C20.2629 21.0545 19.5484 19.3293 19.5484 17.4922C19.5484 13.7035 22.6299 10.6211 26.4176 10.6211H30.7086C31.3088 10.6211 31.8482 10.2549 32.0699 9.69707C33.7031 5.58594 37.6131 2.92969 42.0311 2.92969C46.4502 2.92969 50.3609 5.58594 51.9939 9.69707C52.2156 10.2549 52.7551 10.6211 53.3553 10.6211H57.6463C59.4807 10.6211 61.2055 11.3357 62.5031 12.6334C63.8008 13.9311 64.5154 15.6566 64.5154 17.4922C64.5154 21.2809 61.434 24.3633 57.6463 24.3633H29.3475C28.5385 24.3633 27.8826 25.0191 27.8826 25.8281C27.8826 26.6371 28.5385 27.293 29.3475 27.293H57.6463C63.0494 27.293 67.4451 22.8963 67.4451 17.4922C67.4451 16.0123 67.1189 14.5828 66.5016 13.2852H67.2318C72.7008 13.2852 77.4855 17.0775 78.7553 22.3551C78.6691 22.667 78.6102 22.9914 78.5814 23.326L77.3088 38.2326C75.559 38.8074 74.2916 40.4557 74.2916 42.3951C74.2916 44.0461 75.21 45.4863 76.5623 46.233V70.3594C76.5623 71.1684 77.2182 71.8242 78.0271 71.8242C78.8361 71.8242 79.492 71.1684 79.492 70.3594V46.7762H88.1092V82.127H85.2652V56.1605C85.2652 55.3516 84.6094 54.6957 83.8004 54.6957C82.9914 54.6957 82.3355 55.3516 82.3355 56.1605V82.127H79.492V76.2188C79.492 75.4098 78.8361 74.7539 78.0271 74.7539C77.2182 74.7539 76.5623 75.4098 76.5623 76.2188L76.5609 86.3385C76.5609 87.874 77.043 89.2984 77.8615 90.4713C75.8703 94.5063 71.7852 97.0703 67.2318 97.0703ZM83.8006 90.6484C81.424 90.6484 79.4906 88.715 79.4906 86.3385V85.0566H88.1105V86.3385C88.1105 88.715 86.1771 90.6484 83.8006 90.6484ZM95.0256 53.132C95.0256 54.9516 93.5453 56.432 91.7256 56.432C91.4912 56.432 91.2621 56.4068 91.0387 56.3596V46.2332C92.391 45.4865 93.3094 44.0465 93.3094 42.3953C93.3094 40.4557 92.042 38.8074 90.2922 38.2328L89.923 33.9092C90.4539 33.5609 91.0758 33.3738 91.7254 33.3738C93.5449 33.3738 95.0254 34.8541 95.0254 36.6738V53.132H95.0256Z" fill="#6174AE"/>
</g>
<defs>
<clipPath id="clip0_40_462">
<rect width="100" height="100" fill="white"/>
</clipPath>
</defs>
</svg>
